<svg xmlns="http://www.w3.org/2000/svg" xmlns:xlink="http://www.w3.org/1999/xlink" width="1080" zoomAndPan="magnify" viewBox="0 0 810 809.999993" height="1080" preserveAspectRatio="xMidYMid meet" version="1.0"><defs><clipPath id="2d4304c02b"><path d="M 334.714844 297 L 684 297 L 684 538.457031 L 334.714844 538.457031 Z M 334.714844 297 " clip-rule="nonzero"/></clipPath><clipPath id="d8f8ca8b07"><path d="M 683.019531 409.6875 L 489.988281 297.515625 C 490 301.859375 489.179688 340.546875 457.09375 362.917969 C 455.71875 363.882812 454.382812 364.730469 453.082031 365.484375 C 438.464844 373.921875 427.96875 370.070312 417.777344 366.351562 C 408.777344 363.0625 400.238281 359.949219 389.730469 366.015625 C 388.53125 366.707031 387.308594 367.515625 386.058594 368.460938 C 375.816406 376.207031 369.238281 388.753906 363.449219 399.792969 C 357.800781 410.535156 352.875 419.929688 345.710938 424.066406 C 345.0625 424.441406 344.390625 424.773438 343.699219 425.0625 C 339.820312 426.671875 337.246094 426.019531 334.96875 424.699219 L 528 536.871094 C 530.273438 538.1875 532.851562 538.84375 536.726562 537.234375 C 537.417969 536.945312 538.089844 536.613281 538.742188 536.238281 C 545.90625 532.101562 550.832031 522.707031 556.476562 511.964844 C 562.269531 500.921875 568.84375 488.378906 579.085938 480.632812 C 580.335938 479.6875 581.5625 478.878906 582.761719 478.1875 C 593.265625 472.125 601.808594 475.234375 610.808594 478.523438 C 620.996094 482.242188 631.496094 486.089844 646.109375 477.652344 C 647.414062 476.902344 648.75 476.050781 650.125 475.089844 C 682.210938 452.71875 683.03125 414.035156 683.019531 409.6875 Z M 683.019531 409.6875 " clip-rule="nonzero"/></clipPath><clipPath id="133ca4af32"><path d="M 683.019531 409.6875 L 489.988281 297.515625 C 490 301.859375 489.179688 340.546875 457.09375 362.917969 C 455.71875 363.882812 454.382812 364.730469 453.082031 365.484375 C 438.464844 373.921875 427.96875 370.070312 417.777344 366.351562 C 408.777344 363.0625 400.238281 359.949219 389.730469 366.015625 C 388.53125 366.707031 387.308594 367.515625 386.058594 368.460938 C 375.816406 376.207031 369.238281 388.753906 363.449219 399.792969 C 357.800781 410.535156 352.875 419.929688 345.710938 424.066406 C 345.0625 424.441406 344.390625 424.773438 343.699219 425.0625 C 339.820312 426.671875 337.246094 426.019531 334.96875 424.699219 L 528 536.871094 C 530.273438 538.1875 532.851562 538.84375 536.726562 537.234375 C 537.417969 536.945312 538.089844 536.613281 538.742188 536.238281 C 545.90625 532.101562 550.832031 522.707031 556.476562 511.964844 C 562.269531 500.921875 568.84375 488.378906 579.085938 480.632812 C 580.335938 479.6875 581.5625 478.878906 582.761719 478.1875 C 593.265625 472.125 601.808594 475.234375 610.808594 478.523438 C 620.996094 482.242188 631.496094 486.089844 646.109375 477.652344 C 647.414062 476.902344 648.75 476.050781 650.125 475.089844 C 682.210938 452.71875 683.03125 414.035156 683.019531 409.6875 " clip-rule="nonzero"/></clipPath><clipPath id="4cd4f19b34"><path d="M 787.839844 358.378906 L 422.75 146.371094 L 230.164062 477.984375 L 595.25 689.988281 Z M 787.839844 358.378906 " clip-rule="nonzero"/></clipPath><linearGradient x1="-0.51106" gradientTransform="matrix(-94.859755, 163.33818, -163.34587, -94.855292, 561.199829, 338.396617)" y1="0" x2="1.517385" gradientUnits="userSpaceOnUse" y2="0" id="2e3fc0b23e"><stop stop-opacity="1" stop-color="rgb(97.299194%, 96.899414%, 100%)" offset="0"/><stop stop-opacity="1" stop-color="rgb(97.299194%, 96.899414%, 100%)" offset="0.25"/><stop stop-opacity="1" stop-color="rgb(97.299194%, 96.899414%, 100%)" offset="0.3125"/><stop stop-opacity="1" stop-color="rgb(97.096252%, 96.894836%, 100%)" offset="0.316406"/><stop stop-opacity="1" stop-color="rgb(96.894836%, 96.891785%, 100%)" offset="0.320312"/><stop stop-opacity="1" stop-color="rgb(96.696472%, 96.495056%, 100%)" offset="0.324219"/><stop stop-opacity="1" stop-color="rgb(96.499634%, 96.099854%, 100%)" offset="0.328125"/><stop stop-opacity="1" stop-color="rgb(96.116638%, 95.716858%, 100%)" offset="0.332031"/><stop stop-opacity="1" stop-color="rgb(95.733643%, 95.333862%, 100%)" offset="0.335938"/><stop stop-opacity="1" stop-color="rgb(95.343018%, 94.943237%, 100%)" offset="0.339844"/><stop stop-opacity="1" stop-color="rgb(94.953918%, 94.554138%, 100%)" offset="0.34375"/><stop stop-opacity="1" stop-color="rgb(94.563293%, 94.163513%, 100%)" offset="0.347656"/><stop stop-opacity="1" stop-color="rgb(94.172668%, 93.772888%, 100%)" offset="0.351562"/><stop stop-opacity="1" stop-color="rgb(93.731689%, 93.331909%, 100%)" offset="0.355469"/><stop stop-opacity="1" stop-color="rgb(93.292236%, 92.892456%, 100%)" offset="0.359375"/><stop stop-opacity="1" stop-color="rgb(92.901611%, 92.550659%, 100%)" offset="0.363281"/><stop stop-opacity="1" stop-color="rgb(92.510986%, 92.208862%, 100%)" offset="0.367188"/><stop stop-opacity="1" stop-color="rgb(91.986084%, 91.819763%, 100%)" offset="0.371094"/><stop stop-opacity="1" stop-color="rgb(91.462708%, 91.430664%, 100%)" offset="0.375"/><stop stop-opacity="1" stop-color="rgb(91.056824%, 90.840149%, 100%)" offset="0.378906"/><stop stop-opacity="1" stop-color="rgb(90.65094%, 90.249634%, 100%)" offset="0.382812"/><stop stop-opacity="1" stop-color="rgb(90.060425%, 89.859009%, 100%)" offset="0.386719"/><stop stop-opacity="1" stop-color="rgb(89.46991%, 89.46991%, 100%)" offset="0.390625"/><stop stop-opacity="1" stop-color="rgb(88.829041%, 88.824463%, 100%)" offset="0.394531"/><stop stop-opacity="1" stop-color="rgb(88.189697%, 88.180542%, 100%)" offset="0.398438"/><stop stop-opacity="1" stop-color="rgb(87.652588%, 87.643433%, 100%)" offset="0.402344"/><stop stop-opacity="1" stop-color="rgb(87.115479%, 87.107849%, 100%)" offset="0.40625"/><stop stop-opacity="1" stop-color="rgb(86.535645%, 86.517334%, 100%)" offset="0.410156"/><stop stop-opacity="1" stop-color="rgb(85.955811%, 85.928345%, 100%)" offset="0.414062"/><stop stop-opacity="1" stop-color="rgb(85.374451%, 85.33783%, 100%)" offset="0.417969"/><stop stop-opacity="1" stop-color="rgb(84.794617%, 84.747314%, 100%)" offset="0.421875"/><stop stop-opacity="1" stop-color="rgb(84.213257%, 84.156799%, 100%)" offset="0.425781"/><stop stop-opacity="1" stop-color="rgb(83.633423%, 83.566284%, 100%)" offset="0.429688"/><stop stop-opacity="1" stop-color="rgb(83.049011%, 83.015442%, 100%)" offset="0.433594"/><stop stop-opacity="1" stop-color="rgb(82.4646%, 82.4646%, 100%)" offset="0.4375"/><stop stop-opacity="1" stop-color="rgb(81.834412%, 81.834412%, 100%)" offset="0.441406"/><stop stop-opacity="1" stop-color="rgb(81.20575%, 81.20575%, 100%)" offset="0.445312"/><stop stop-opacity="1" stop-color="rgb(81.402588%, 81.402588%, 100%)" offset="0.449219"/><stop stop-opacity="1" stop-color="rgb(81.599426%, 81.599426%, 100%)" offset="0.453125"/><stop stop-opacity="1" stop-color="rgb(81.976318%, 81.976318%, 100%)" offset="0.457031"/><stop stop-opacity="1" stop-color="rgb(82.354736%, 82.354736%, 100%)" offset="0.460938"/><stop stop-opacity="1" stop-color="rgb(82.695007%, 82.695007%, 100%)" offset="0.464844"/><stop stop-opacity="1" stop-color="rgb(83.035278%, 83.035278%, 100%)" offset="0.46875"/><stop stop-opacity="1" stop-color="rgb(83.583069%, 83.583069%, 100%)" offset="0.472656"/><stop stop-opacity="1" stop-color="rgb(84.132385%, 84.132385%, 100%)" offset="0.476562"/><stop stop-opacity="1" stop-color="rgb(84.812927%, 84.614563%, 100%)" offset="0.480469"/><stop stop-opacity="1" stop-color="rgb(85.493469%, 85.096741%, 100%)" offset="0.484375"/><stop stop-opacity="1" stop-color="rgb(86.074829%, 85.687256%, 100%)" offset="0.488281"/><stop stop-opacity="1" stop-color="rgb(86.656189%, 86.277771%, 100%)" offset="0.492188"/><stop stop-opacity="1" stop-color="rgb(87.191772%, 86.86676%, 100%)" offset="0.496094"/><stop stop-opacity="1" stop-color="rgb(87.727356%, 87.457275%, 100%)" offset="0.5"/><stop stop-opacity="1" stop-color="rgb(88.33313%, 88.166809%, 100%)" offset="0.503906"/><stop stop-opacity="1" stop-color="rgb(88.938904%, 88.877869%, 100%)" offset="0.507812"/><stop stop-opacity="1" stop-color="rgb(89.68811%, 89.498901%, 100%)" offset="0.511719"/><stop stop-opacity="1" stop-color="rgb(90.438843%, 90.119934%, 100%)" offset="0.515625"/><stop stop-opacity="1" stop-color="rgb(91.319275%, 90.959167%, 100%)" offset="0.519531"/><stop stop-opacity="1" stop-color="rgb(92.201233%, 91.799927%, 100%)" offset="0.523438"/><stop stop-opacity="1" stop-color="rgb(92.930603%, 92.530823%, 100%)" offset="0.527344"/><stop stop-opacity="1" stop-color="rgb(93.661499%, 93.261719%, 100%)" offset="0.53125"/><stop stop-opacity="1" stop-color="rgb(94.442749%, 94.041443%, 100%)" offset="0.535156"/><stop stop-opacity="1" stop-color="rgb(95.223999%, 94.822693%, 100%)" offset="0.539062"/><stop stop-opacity="1" stop-color="rgb(96.003723%, 95.603943%, 100%)" offset="0.542969"/><stop stop-opacity="1" stop-color="rgb(96.784973%, 96.385193%, 100%)" offset="0.546875"/><stop stop-opacity="1" stop-color="rgb(96.931458%, 96.531677%, 100%)" offset="0.554687"/><stop stop-opacity="1" stop-color="rgb(97.177124%, 96.777344%, 100%)" offset="0.5625"/><stop stop-opacity="1" stop-color="rgb(97.286987%, 96.887207%, 100%)" offset="0.625"/><stop stop-opacity="1" stop-color="rgb(96.734619%, 96.333313%, 100%)" offset="0.628906"/><stop stop-opacity="1" stop-color="rgb(96.170044%, 95.768738%, 100%)" offset="0.632812"/><stop stop-opacity="1" stop-color="rgb(95.579529%, 95.178223%, 100%)" offset="0.636719"/><stop stop-opacity="1" stop-color="rgb(94.989014%, 94.589233%, 100%)" offset="0.640625"/><stop stop-opacity="1" stop-color="rgb(94.34967%, 93.955994%, 100%)" offset="0.644531"/><stop stop-opacity="1" stop-color="rgb(93.710327%, 93.322754%, 100%)" offset="0.648438"/><stop stop-opacity="1" stop-color="rgb(93.118286%, 92.785645%, 100%)" offset="0.652344"/><stop stop-opacity="1" stop-color="rgb(92.527771%, 92.248535%, 100%)" offset="0.65625"/><stop stop-opacity="1" stop-color="rgb(92.010498%, 91.671753%, 100%)" offset="0.660156"/><stop stop-opacity="1" stop-color="rgb(91.494751%, 91.094971%, 100%)" offset="0.664062"/><stop stop-opacity="1" stop-color="rgb(90.913391%, 90.679932%, 100%)" offset="0.667969"/><stop stop-opacity="1" stop-color="rgb(90.333557%, 90.266418%, 100%)" offset="0.671875"/><stop stop-opacity="1" stop-color="rgb(89.752197%, 89.675903%, 100%)" offset="0.675781"/><stop stop-opacity="1" stop-color="rgb(89.172363%, 89.085388%, 100%)" offset="0.679687"/><stop stop-opacity="1" stop-color="rgb(88.737488%, 88.548279%, 100%)" offset="0.683594"/><stop stop-opacity="1" stop-color="rgb(88.304138%, 88.011169%, 100%)" offset="0.6875"/><stop stop-opacity="1" stop-color="rgb(87.713623%, 87.567139%, 100%)" offset="0.691406"/><stop stop-opacity="1" stop-color="rgb(87.124634%, 87.124634%, 100%)" offset="0.695312"/><stop stop-opacity="1" stop-color="rgb(86.555481%, 86.534119%, 100%)" offset="0.699219"/><stop stop-opacity="1" stop-color="rgb(85.987854%, 85.943604%, 100%)" offset="0.703125"/><stop stop-opacity="1" stop-color="rgb(85.574341%, 85.385132%, 100%)" offset="0.707031"/><stop stop-opacity="1" stop-color="rgb(85.162354%, 84.82666%, 100%)" offset="0.710938"/><stop stop-opacity="1" stop-color="rgb(84.571838%, 84.403992%, 100%)" offset="0.714844"/><stop stop-opacity="1" stop-color="rgb(83.982849%, 83.982849%, 100%)" offset="0.71875"/><stop stop-opacity="1" stop-color="rgb(83.592224%, 83.592224%, 100%)" offset="0.722656"/><stop stop-opacity="1" stop-color="rgb(83.201599%, 83.201599%, 100%)" offset="0.726562"/><stop stop-opacity="1" stop-color="rgb(82.618713%, 82.611084%, 100%)" offset="0.730469"/><stop stop-opacity="1" stop-color="rgb(82.037354%, 82.020569%, 100%)" offset="0.734375"/><stop stop-opacity="1" stop-color="rgb(81.639099%, 81.629944%, 100%)" offset="0.738281"/><stop stop-opacity="1" stop-color="rgb(81.240845%, 81.240845%, 100%)" offset="0.742188"/><stop stop-opacity="1" stop-color="rgb(81.219482%, 81.219482%, 100%)" offset="0.75"/><stop stop-opacity="1" stop-color="rgb(81.199646%, 81.199646%, 100%)" offset="1"/></linearGradient><clipPath id="b40e9d8c81"><path d="M 225.003906 231 L 685 231 L 685 729 L 225.003906 729 Z M 225.003906 231 " clip-rule="nonzero"/></clipPath><clipPath id="54a293bc68"><path d="M 32.214844 614.078125 L 226 614.078125 L 226 729 L 32.214844 729 Z M 32.214844 614.078125 " clip-rule="nonzero"/></clipPath></defs><path fill="#554fd1" d="M 464.476562 352.261719 L 719.402344 499.445312 L 732.25 491.140625 L 477.320312 343.953125 L 464.476562 352.261719 " fill-opacity="1" fill-rule="nonzero"/><path fill="#d3d0fb" d="M 769 516.824219 C 772.625 514.734375 772.625 511.347656 769 509.253906 L 729.636719 486.523438 C 727.507812 485.296875 724.0625 485.296875 721.933594 486.523438 L 715.179688 490.421875 C 713.054688 491.652344 709.609375 491.652344 707.484375 490.421875 L 477.125 357.425781 C 475 356.195312 475 354.203125 477.125 352.976562 L 483.871094 349.082031 C 485.996094 347.855469 485.996094 345.867188 483.871094 344.636719 L 444.496094 321.90625 C 440.878906 319.816406 435.003906 319.816406 431.382812 321.90625 L 221.648438 442.996094 C 218.023438 445.085938 218.023438 448.476562 221.648438 450.570312 L 546.148438 637.917969 C 549.769531 640.003906 555.644531 640.003906 559.265625 637.917969 L 769 516.824219 " fill-opacity="1" fill-rule="nonzero"/><path fill="#b3adfb" d="M 439.96875 568.410156 L 342.027344 511.867188 C 339.835938 510.601562 339.835938 508.546875 342.027344 507.28125 L 405.558594 470.601562 C 407.75 469.332031 411.308594 469.332031 413.503906 470.601562 L 511.445312 527.148438 C 513.640625 528.414062 513.640625 530.46875 511.445312 531.730469 L 447.914062 568.410156 C 445.722656 569.675781 442.164062 569.675781 439.96875 568.410156 " fill-opacity="1" fill-rule="nonzero"/><path fill="#d3d0fb" d="M 708.40625 488.300781 L 480.800781 356.890625 C 479.171875 355.949219 479.171875 354.429688 480.800781 353.488281 L 494.015625 345.910156 L 727.511719 480.722656 L 714.292969 488.304688 C 712.671875 489.242188 710.035156 489.242188 708.40625 488.300781 " fill-opacity="1" fill-rule="nonzero"/><path fill="#423eaf" d="M 769 516.824219 L 559.265625 637.917969 C 555.644531 640.003906 549.769531 640.003906 546.148438 637.917969 L 221.648438 450.570312 C 219.832031 449.523438 218.929688 448.152344 218.929688 446.78125 L 218.929688 454.699219 C 218.929688 456.074219 219.832031 457.441406 221.648438 458.492188 L 546.148438 645.835938 C 549.769531 647.925781 555.644531 647.925781 559.265625 645.835938 L 769 524.746094 C 770.8125 523.699219 771.714844 522.328125 771.714844 520.957031 L 771.714844 513.039062 C 771.714844 514.40625 770.8125 515.78125 769 516.824219 " fill-opacity="1" fill-rule="nonzero"/><path fill="#4f4ad1" d="M 221.648438 450.570312 C 219.832031 449.523438 218.929688 448.152344 218.929688 446.78125 L 218.929688 454.699219 C 218.929688 456.074219 219.832031 457.441406 221.648438 458.492188 L 227.757812 462.015625 L 227.757812 454.097656 L 221.648438 450.570312 " fill-opacity="1" fill-rule="nonzero"/><path fill="#4f4ad1" d="M 559.265625 637.917969 C 555.644531 640.003906 549.769531 640.003906 546.148438 637.917969 L 540.273438 634.527344 L 540.273438 642.441406 L 546.148438 645.835938 C 549.769531 647.925781 555.644531 647.925781 559.265625 645.835938 L 564.769531 642.65625 L 564.769531 634.734375 L 559.265625 637.917969 " fill-opacity="1" fill-rule="nonzero"/><path fill="#4f4ad1" d="M 769 516.824219 L 763.105469 520.226562 L 763.105469 528.148438 L 769 524.746094 C 770.8125 523.699219 771.714844 522.328125 771.714844 520.957031 L 771.714844 513.039062 C 771.714844 514.40625 770.8125 515.78125 769 516.824219 " fill-opacity="1" fill-rule="nonzero"/><path fill="#b3adfb" d="M 625.402344 584.609375 C 623.550781 585.675781 620.550781 585.675781 618.703125 584.609375 L 313.980469 408.679688 C 312.132812 407.613281 312.132812 405.882812 313.980469 404.8125 L 430.484375 337.550781 C 432.332031 336.484375 435.332031 336.484375 437.183594 337.550781 L 741.902344 513.476562 C 743.753906 514.546875 743.753906 516.277344 741.902344 517.34375 L 625.402344 584.609375 " fill-opacity="1" fill-rule="nonzero"/><path fill="#8581d2" d="M 419.753906 373.128906 C 418.367188 373.929688 416.121094 373.929688 414.738281 373.128906 L 399.070312 364.085938 C 397.6875 363.285156 397.6875 361.988281 399.070312 361.1875 L 414.738281 352.144531 C 416.121094 351.339844 418.367188 351.339844 419.757812 352.144531 L 435.417969 361.1875 C 436.808594 361.988281 436.808594 363.285156 435.417969 364.085938 L 419.753906 373.128906 " fill-opacity="1" fill-rule="nonzero"/><path fill="#8581d2" d="M 445.347656 387.902344 C 443.957031 388.707031 441.710938 388.707031 440.324219 387.902344 L 424.660156 378.859375 C 423.273438 378.058594 423.273438 376.761719 424.660156 375.964844 L 440.324219 366.917969 C 441.710938 366.121094 443.960938 366.121094 445.347656 366.917969 L 461.011719 375.964844 C 462.398438 376.761719 462.398438 378.058594 461.011719 378.863281 L 445.347656 387.902344 " fill-opacity="1" fill-rule="nonzero"/><path fill="#8581d2" d="M 470.933594 402.683594 C 469.550781 403.480469 467.304688 403.480469 465.917969 402.683594 L 450.253906 393.636719 C 448.867188 392.832031 448.867188 391.539062 450.253906 390.738281 L 465.917969 381.691406 C 467.304688 380.894531 469.550781 380.894531 470.933594 381.691406 L 486.601562 390.738281 C 487.984375 391.539062 487.984375 392.839844 486.601562 393.636719 L 470.933594 402.683594 " fill-opacity="1" fill-rule="nonzero"/><path fill="#8581d2" d="M 381.355469 439.011719 C 379.96875 439.808594 377.722656 439.808594 376.335938 439.011719 L 360.671875 429.964844 C 359.285156 429.167969 359.285156 427.871094 360.671875 427.070312 L 376.335938 418.027344 C 377.722656 417.222656 379.96875 417.222656 381.359375 418.027344 L 397.019531 427.070312 C 398.410156 427.871094 398.410156 429.167969 397.019531 429.964844 L 381.355469 439.011719 " fill-opacity="1" fill-rule="nonzero"/><path fill="#8581d2" d="M 406.949219 453.785156 C 405.5625 454.589844 403.3125 454.589844 401.925781 453.785156 L 386.261719 444.742188 C 384.875 443.941406 384.875 442.644531 386.261719 441.84375 L 401.929688 432.800781 C 403.316406 432 405.5625 432 406.949219 432.800781 L 422.613281 441.84375 C 424 442.644531 424 443.941406 422.613281 444.746094 L 406.949219 453.785156 " fill-opacity="1" fill-rule="nonzero"/><path fill="#8581d2" d="M 496.523438 417.457031 C 495.136719 418.253906 492.890625 418.253906 491.503906 417.457031 L 475.839844 408.410156 C 474.453125 407.613281 474.453125 406.3125 475.839844 405.511719 L 491.503906 396.46875 C 492.890625 395.667969 495.140625 395.667969 496.527344 396.46875 L 512.1875 405.515625 C 513.578125 406.3125 513.578125 407.613281 512.1875 408.410156 L 496.523438 417.457031 " fill-opacity="1" fill-rule="nonzero"/><path fill="#8581d2" d="M 522.117188 432.230469 C 520.730469 433.027344 518.480469 433.027344 517.09375 432.230469 L 501.433594 423.183594 C 500.042969 422.386719 500.042969 421.085938 501.433594 420.289062 L 517.097656 411.242188 C 518.484375 410.445312 520.730469 410.445312 522.117188 411.242188 L 537.78125 420.289062 C 539.167969 421.085938 539.167969 422.386719 537.78125 423.183594 L 522.117188 432.230469 " fill-opacity="1" fill-rule="nonzero"/><path fill="#8581d2" d="M 547.703125 447.003906 C 546.320312 447.804688 544.070312 447.804688 542.6875 447.003906 L 527.019531 437.960938 C 525.636719 437.160156 525.636719 435.863281 527.019531 435.0625 L 542.6875 426.019531 C 544.070312 425.21875 546.320312 425.21875 547.707031 426.019531 L 563.375 435.0625 C 564.757812 435.863281 564.757812 437.160156 563.371094 437.960938 L 547.703125 447.003906 " fill-opacity="1" fill-rule="nonzero"/><path fill="#8581d2" d="M 573.296875 461.78125 C 571.910156 462.582031 569.660156 462.582031 568.273438 461.78125 L 552.609375 452.738281 C 551.222656 451.933594 551.222656 450.640625 552.609375 449.835938 L 568.273438 440.792969 C 569.664062 439.992188 571.910156 439.992188 573.296875 440.792969 L 588.960938 449.835938 C 590.347656 450.640625 590.347656 451.9375 588.960938 452.738281 L 573.296875 461.78125 " fill-opacity="1" fill-rule="nonzero"/><path fill="#8581d2" d="M 598.886719 476.554688 C 597.5 477.355469 595.253906 477.355469 593.867188 476.554688 L 578.203125 467.511719 C 576.816406 466.710938 576.816406 465.414062 578.203125 464.613281 L 593.867188 455.570312 C 595.253906 454.765625 597.5 454.765625 598.890625 455.570312 L 614.550781 464.613281 C 615.933594 465.414062 615.933594 466.710938 614.550781 467.511719 L 598.886719 476.554688 " fill-opacity="1" fill-rule="nonzero"/><path fill="#8581d2" d="M 624.476562 491.328125 C 623.085938 492.132812 620.839844 492.132812 619.457031 491.328125 L 603.789062 482.285156 C 602.40625 481.484375 602.40625 480.1875 603.789062 479.390625 L 619.457031 470.34375 C 620.84375 469.546875 623.09375 469.546875 624.476562 470.34375 L 640.140625 479.390625 C 641.527344 480.1875 641.527344 481.484375 640.140625 482.285156 L 624.476562 491.328125 " fill-opacity="1" fill-rule="nonzero"/><path fill="#8581d2" d="M 650.066406 506.109375 C 648.679688 506.90625 646.433594 506.90625 645.042969 506.109375 L 629.382812 497.0625 C 627.992188 496.261719 627.992188 494.960938 629.382812 494.164062 L 645.046875 485.117188 C 646.433594 484.320312 648.679688 484.320312 650.066406 485.117188 L 665.730469 494.164062 C 667.117188 494.960938 667.117188 496.261719 665.730469 497.0625 L 650.066406 506.109375 " fill-opacity="1" fill-rule="nonzero"/><path fill="#8581d2" d="M 432.195312 409.636719 C 430.808594 410.4375 428.5625 410.4375 427.175781 409.636719 L 411.511719 400.59375 C 410.125 399.792969 410.125 398.496094 411.511719 397.691406 L 427.175781 388.652344 C 428.5625 387.847656 430.808594 387.847656 432.199219 388.652344 L 447.859375 397.699219 C 449.25 398.496094 449.246094 399.792969 447.859375 400.59375 L 432.195312 409.636719 " fill-opacity="1" fill-rule="nonzero"/><path fill="#8581d2" d="M 457.789062 424.410156 C 456.398438 425.210938 454.152344 425.210938 452.765625 424.410156 L 437.101562 415.367188 C 435.714844 414.566406 435.714844 413.269531 437.101562 412.472656 L 452.765625 403.425781 C 454.15625 402.628906 456.402344 402.628906 457.789062 403.425781 L 473.453125 412.472656 C 474.835938 413.269531 474.835938 414.566406 473.453125 415.367188 L 457.789062 424.410156 " fill-opacity="1" fill-rule="nonzero"/><path fill="#8581d2" d="M 483.375 439.1875 C 481.988281 439.988281 479.742188 439.988281 478.355469 439.1875 L 462.691406 430.140625 C 461.308594 429.34375 461.308594 428.042969 462.691406 427.246094 L 478.359375 418.199219 C 479.742188 417.402344 481.988281 417.402344 483.375 418.199219 L 499.039062 427.246094 C 500.425781 428.042969 500.425781 429.34375 499.039062 430.144531 L 483.375 439.1875 " fill-opacity="1" fill-rule="nonzero"/><path fill="#8581d2" d="M 508.96875 453.964844 C 507.578125 454.761719 505.332031 454.761719 503.945312 453.964844 L 488.28125 444.917969 C 486.894531 444.117188 486.894531 442.816406 488.28125 442.019531 L 503.945312 432.972656 C 505.332031 432.175781 507.582031 432.175781 508.96875 432.972656 L 524.632812 442.019531 C 526.019531 442.824219 526.019531 444.121094 524.632812 444.917969 L 508.96875 453.964844 " fill-opacity="1" fill-rule="nonzero"/><path fill="#8581d2" d="M 534.554688 468.738281 C 533.171875 469.535156 530.925781 469.535156 529.535156 468.738281 L 513.871094 459.691406 C 512.484375 458.894531 512.484375 457.597656 513.871094 456.792969 L 529.539062 447.753906 C 530.925781 446.949219 533.171875 446.949219 534.554688 447.753906 L 550.222656 456.792969 C 551.605469 457.597656 551.605469 458.894531 550.222656 459.691406 L 534.554688 468.738281 " fill-opacity="1" fill-rule="nonzero"/><path fill="#8581d2" d="M 560.144531 483.511719 C 558.757812 484.3125 556.511719 484.3125 555.125 483.511719 L 539.460938 474.46875 C 538.078125 473.667969 538.078125 472.371094 539.460938 471.566406 L 555.125 462.527344 C 556.511719 461.726562 558.761719 461.726562 560.148438 462.527344 L 575.808594 471.570312 C 577.199219 472.371094 577.199219 473.667969 575.808594 474.46875 L 560.144531 483.511719 " fill-opacity="1" fill-rule="nonzero"/><path fill="#8581d2" d="M 585.738281 498.285156 C 584.351562 499.089844 582.101562 499.089844 580.714844 498.285156 L 565.050781 489.246094 C 563.664062 488.441406 563.664062 487.144531 565.054688 486.34375 L 580.71875 477.300781 C 582.105469 476.5 584.351562 476.5 585.738281 477.300781 L 601.402344 486.34375 C 602.789062 487.144531 602.789062 488.441406 601.402344 489.246094 L 585.738281 498.285156 " fill-opacity="1" fill-rule="nonzero"/><path fill="#8581d2" d="M 611.324219 513.0625 C 609.941406 513.863281 607.691406 513.863281 606.308594 513.058594 L 590.640625 504.019531 C 589.257812 503.214844 589.257812 501.917969 590.640625 501.121094 L 606.308594 492.074219 C 607.691406 491.277344 609.941406 491.277344 611.324219 492.074219 L 626.992188 501.121094 C 628.375 501.921875 628.375 503.214844 626.992188 504.019531 L 611.324219 513.0625 " fill-opacity="1" fill-rule="nonzero"/><path fill="#8581d2" d="M 636.917969 527.839844 C 635.53125 528.636719 633.28125 528.636719 631.894531 527.839844 L 616.230469 518.792969 C 614.84375 517.996094 614.84375 516.695312 616.230469 515.894531 L 631.894531 506.851562 C 633.28125 506.050781 635.53125 506.050781 636.917969 506.851562 L 652.582031 515.894531 C 653.96875 516.695312 653.96875 517.996094 652.582031 518.792969 L 636.917969 527.839844 " fill-opacity="1" fill-rule="nonzero"/><path fill="#8581d2" d="M 675.65625 520.882812 C 674.269531 521.679688 672.023438 521.679688 670.636719 520.882812 L 654.972656 511.835938 C 653.585938 511.039062 653.585938 509.734375 654.972656 508.9375 L 670.636719 499.894531 C 672.023438 499.09375 674.269531 499.09375 675.65625 499.894531 L 691.324219 508.9375 C 692.707031 509.738281 692.707031 511.039062 691.324219 511.835938 L 675.65625 520.882812 " fill-opacity="1" fill-rule="nonzero"/><path fill="#8581d2" d="M 701.246094 535.65625 C 699.859375 536.453125 697.609375 536.453125 696.222656 535.65625 L 680.558594 526.609375 C 679.175781 525.8125 679.175781 524.515625 680.558594 523.710938 L 696.222656 514.671875 C 697.613281 513.867188 699.859375 513.867188 701.246094 514.671875 L 716.910156 523.714844 C 718.296875 524.515625 718.296875 525.8125 716.910156 526.609375 L 701.246094 535.65625 " fill-opacity="1" fill-rule="nonzero"/><path fill="#8581d2" d="M 394.25 417.085938 C 392.863281 417.882812 390.613281 417.882812 389.226562 417.085938 L 348.25 393.425781 C 346.863281 392.625 346.863281 391.328125 348.25 390.523438 L 363.914062 381.484375 C 365.304688 380.679688 367.550781 380.679688 368.9375 381.484375 L 409.914062 405.144531 C 411.300781 405.945312 411.300781 407.242188 409.914062 408.039062 L 394.25 417.085938 " fill-opacity="1" fill-rule="nonzero"/><path fill="#8581d2" d="M 535.699219 528.097656 C 534.316406 528.898438 532.0625 528.898438 530.679688 528.097656 L 412.152344 459.664062 C 410.765625 458.859375 410.765625 457.5625 412.152344 456.765625 L 427.816406 447.71875 C 429.203125 446.921875 431.449219 446.921875 432.835938 447.71875 L 551.367188 516.15625 C 552.75 516.953125 552.75 518.253906 551.367188 519.054688 L 535.699219 528.097656 " fill-opacity="1" fill-rule="nonzero"/><path fill="#8581d2" d="M 406.511719 394.824219 C 405.125 395.625 402.875 395.625 401.488281 394.824219 L 373.65625 378.753906 C 372.273438 377.957031 372.273438 376.65625 373.664062 375.859375 L 389.328125 366.8125 C 390.710938 366.015625 392.960938 366.015625 394.34375 366.8125 L 422.175781 382.882812 C 423.5625 383.679688 423.5625 384.980469 422.175781 385.78125 L 406.511719 394.824219 " fill-opacity="1" fill-rule="nonzero"/><path fill="#8581d2" d="M 355.6875 424.296875 C 354.300781 425.09375 352.054688 425.09375 350.671875 424.296875 L 322.839844 408.226562 C 321.453125 407.425781 321.453125 406.128906 322.839844 405.328125 L 338.503906 396.28125 C 339.890625 395.484375 342.136719 395.484375 343.527344 396.28125 L 371.351562 412.355469 C 372.738281 413.152344 372.738281 414.453125 371.351562 415.25 L 355.6875 424.296875 " fill-opacity="1" fill-rule="nonzero"/><path fill="#8581d2" d="M 675.890625 550.324219 C 674.503906 551.125 672.257812 551.125 670.875 550.324219 L 643.042969 534.257812 C 641.65625 533.453125 641.65625 532.160156 643.042969 531.359375 L 658.707031 522.3125 C 660.09375 521.515625 662.339844 521.515625 663.730469 522.3125 L 691.554688 538.386719 C 692.941406 539.183594 692.941406 540.480469 691.554688 541.28125 L 675.890625 550.324219 " fill-opacity="1" fill-rule="nonzero"/><path fill="#8581d2" d="M 444.839844 358.269531 C 443.449219 359.070312 441.203125 359.070312 439.816406 358.269531 L 424.480469 349.414062 C 423.09375 348.617188 423.09375 347.316406 424.480469 346.515625 L 430.871094 342.828125 C 432.257812 342.027344 434.503906 342.03125 435.894531 342.828125 L 451.230469 351.683594 C 452.617188 352.484375 452.617188 353.777344 451.230469 354.582031 L 444.839844 358.269531 " fill-opacity="1" fill-rule="nonzero"/><path fill="#8581d2" d="M 470.425781 373.046875 C 469.042969 373.84375 466.796875 373.84375 465.40625 373.046875 L 450.074219 364.191406 C 448.6875 363.390625 448.6875 362.09375 450.074219 361.292969 L 456.464844 357.601562 C 457.851562 356.804688 460.097656 356.804688 461.480469 357.601562 L 476.816406 366.457031 C 478.203125 367.257812 478.203125 368.558594 476.816406 369.355469 L 470.425781 373.046875 " fill-opacity="1" fill-rule="nonzero"/><path fill="#8581d2" d="M 496.015625 387.820312 C 494.628906 388.621094 492.382812 388.621094 490.996094 387.820312 L 475.660156 378.96875 C 474.277344 378.167969 474.277344 376.867188 475.660156 376.066406 L 482.050781 372.375 C 483.4375 371.578125 485.683594 371.578125 487.070312 372.375 L 502.40625 381.234375 C 503.796875 382.035156 503.796875 383.332031 502.40625 384.128906 L 496.015625 387.820312 " fill-opacity="1" fill-rule="nonzero"/><path fill="#8581d2" d="M 521.609375 402.59375 C 520.222656 403.398438 517.976562 403.398438 516.585938 402.59375 L 501.253906 393.742188 C 499.863281 392.941406 499.863281 391.644531 501.253906 390.839844 L 507.644531 387.15625 C 509.03125 386.351562 511.277344 386.351562 512.664062 387.15625 L 528 396.007812 C 529.382812 396.808594 529.382812 398.105469 528 398.910156 L 521.609375 402.59375 " fill-opacity="1" fill-rule="nonzero"/><path fill="#8581d2" d="M 547.195312 417.371094 C 545.8125 418.171875 543.5625 418.171875 542.179688 417.371094 L 526.84375 408.515625 C 525.457031 407.714844 525.457031 406.417969 526.84375 405.617188 L 533.234375 401.929688 C 534.617188 401.128906 536.867188 401.128906 538.253906 401.929688 L 553.585938 410.78125 C 554.972656 411.585938 554.972656 412.878906 553.585938 413.683594 L 547.195312 417.371094 " fill-opacity="1" fill-rule="nonzero"/><path fill="#8581d2" d="M 572.789062 432.144531 C 571.402344 432.945312 569.152344 432.945312 567.765625 432.144531 L 552.429688 423.289062 C 551.046875 422.488281 551.046875 421.191406 552.429688 420.394531 L 558.820312 416.703125 C 560.207031 415.902344 562.457031 415.902344 563.84375 416.703125 L 579.179688 425.558594 C 580.566406 426.359375 580.566406 427.65625 579.179688 428.457031 L 572.789062 432.144531 " fill-opacity="1" fill-rule="nonzero"/><path fill="#8581d2" d="M 598.378906 446.921875 C 596.992188 447.71875 594.746094 447.71875 593.359375 446.921875 L 578.023438 438.066406 C 576.636719 437.265625 576.636719 435.96875 578.023438 435.167969 L 584.414062 431.476562 C 585.800781 430.679688 588.046875 430.679688 589.433594 431.480469 L 604.769531 440.335938 C 606.152344 441.132812 606.152344 442.429688 604.769531 443.230469 L 598.378906 446.921875 " fill-opacity="1" fill-rule="nonzero"/><path fill="#8581d2" d="M 623.96875 461.695312 C 622.585938 462.496094 620.332031 462.496094 618.949219 461.695312 L 603.613281 452.839844 C 602.226562 452.042969 602.226562 450.742188 603.613281 449.941406 L 610.003906 446.253906 C 611.390625 445.453125 613.640625 445.453125 615.023438 446.253906 L 630.359375 455.109375 C 631.746094 455.90625 631.746094 457.207031 630.359375 458.007812 L 623.96875 461.695312 " fill-opacity="1" fill-rule="nonzero"/><path fill="#8581d2" d="M 649.558594 476.472656 C 648.171875 477.269531 645.925781 477.269531 644.539062 476.472656 L 629.203125 467.613281 C 627.820312 466.816406 627.820312 465.519531 629.203125 464.71875 L 635.59375 461.027344 C 636.980469 460.230469 639.226562 460.230469 640.613281 461.027344 L 655.949219 469.882812 C 657.335938 470.683594 657.335938 471.984375 655.949219 472.78125 L 649.558594 476.472656 " fill-opacity="1" fill-rule="nonzero"/><path fill="#8581d2" d="M 675.152344 491.246094 C 673.761719 492.046875 671.515625 492.046875 670.128906 491.246094 L 654.792969 482.394531 C 653.40625 481.589844 653.40625 480.292969 654.792969 479.492188 L 661.183594 475.800781 C 662.570312 475.003906 664.816406 475.003906 666.203125 475.800781 L 681.542969 484.65625 C 682.925781 485.460938 682.925781 486.757812 681.542969 487.554688 L 675.152344 491.246094 " fill-opacity="1" fill-rule="nonzero"/><path fill="#8581d2" d="M 700.738281 506.019531 C 699.351562 506.824219 697.105469 506.824219 695.722656 506.019531 L 680.382812 497.167969 C 678.996094 496.367188 678.996094 495.070312 680.382812 494.265625 L 686.777344 490.582031 C 688.160156 489.777344 690.40625 489.777344 691.792969 490.582031 L 707.128906 499.433594 C 708.515625 500.234375 708.515625 501.53125 707.128906 502.335938 L 700.738281 506.019531 " fill-opacity="1" fill-rule="nonzero"/><path fill="#8581d2" d="M 726.328125 520.792969 C 724.941406 521.597656 722.695312 521.597656 721.308594 520.792969 L 705.972656 511.941406 C 704.585938 511.140625 704.585938 509.84375 705.972656 509.046875 L 712.363281 505.355469 C 713.75 504.554688 716 504.554688 717.386719 505.355469 L 732.71875 514.207031 C 734.109375 515.007812 734.109375 516.304688 732.71875 517.109375 L 726.328125 520.792969 " fill-opacity="1" fill-rule="nonzero"/><path fill="#8581d2" d="M 420.15625 432.015625 C 418.773438 432.820312 416.527344 432.820312 415.140625 432.015625 L 399.476562 422.976562 C 398.089844 422.171875 398.089844 420.875 399.476562 420.078125 L 415.140625 411.03125 C 416.527344 410.234375 418.777344 410.234375 420.160156 411.03125 L 435.824219 420.078125 C 437.210938 420.875 437.210938 422.171875 435.824219 422.976562 L 420.15625 432.015625 " fill-opacity="1" fill-rule="nonzero"/><path fill="#8581d2" d="M 445.75 446.796875 C 444.363281 447.59375 442.113281 447.59375 440.726562 446.796875 L 425.0625 437.75 C 423.679688 436.949219 423.679688 435.652344 425.0625 434.851562 L 440.726562 425.808594 C 442.117188 425.007812 444.363281 425.007812 445.75 425.808594 L 461.414062 434.851562 C 462.800781 435.652344 462.800781 436.953125 461.414062 437.75 L 445.75 446.796875 " fill-opacity="1" fill-rule="nonzero"/><path fill="#8581d2" d="M 471.339844 461.570312 C 469.953125 462.367188 467.707031 462.367188 466.320312 461.570312 L 450.65625 452.523438 C 449.269531 451.726562 449.269531 450.425781 450.65625 449.628906 L 466.320312 440.582031 C 467.707031 439.78125 469.953125 439.78125 471.339844 440.582031 L 487.003906 449.628906 C 488.390625 450.425781 488.390625 451.726562 487.003906 452.523438 L 471.339844 461.570312 " fill-opacity="1" fill-rule="nonzero"/><path fill="#8581d2" d="M 496.929688 476.34375 C 495.542969 477.144531 493.292969 477.144531 491.910156 476.34375 L 476.246094 467.296875 C 474.859375 466.5 474.859375 465.203125 476.246094 464.402344 L 491.910156 455.359375 C 493.300781 454.558594 495.546875 454.558594 496.929688 455.359375 L 512.597656 464.402344 C 513.980469 465.203125 513.980469 466.5 512.597656 467.300781 L 496.929688 476.34375 " fill-opacity="1" fill-rule="nonzero"/><path fill="#8581d2" d="M 522.519531 491.121094 C 521.132812 491.921875 518.882812 491.921875 517.496094 491.121094 L 501.835938 482.078125 C 500.445312 481.273438 500.445312 479.976562 501.835938 479.175781 L 517.5 470.132812 C 518.886719 469.332031 521.132812 469.332031 522.519531 470.132812 L 538.183594 479.175781 C 539.570312 479.980469 539.570312 481.273438 538.183594 482.078125 L 522.519531 491.121094 " fill-opacity="1" fill-rule="nonzero"/><path fill="#8581d2" d="M 548.109375 505.894531 C 546.722656 506.695312 544.476562 506.695312 543.089844 505.894531 L 527.425781 496.851562 C 526.039062 496.050781 526.039062 494.753906 527.425781 493.949219 L 543.089844 484.910156 C 544.476562 484.105469 546.726562 484.105469 548.113281 484.910156 L 563.777344 493.953125 C 565.164062 494.753906 565.164062 496.050781 563.777344 496.851562 L 548.109375 505.894531 " fill-opacity="1" fill-rule="nonzero"/><path fill="#8581d2" d="M 573.699219 520.667969 C 572.316406 521.46875 570.066406 521.46875 568.679688 520.667969 L 553.011719 511.625 C 551.628906 510.824219 551.628906 509.527344 553.011719 508.730469 L 568.679688 499.683594 C 570.066406 498.886719 572.316406 498.886719 573.699219 499.683594 L 589.363281 508.730469 C 590.75 509.527344 590.75 510.824219 589.363281 511.625 L 573.699219 520.667969 " fill-opacity="1" fill-rule="nonzero"/><path fill="#8581d2" d="M 599.289062 535.445312 C 597.902344 536.246094 595.65625 536.246094 594.269531 535.445312 L 578.605469 526.398438 C 577.21875 525.601562 577.21875 524.300781 578.605469 523.503906 L 594.269531 514.457031 C 595.65625 513.660156 597.902344 513.660156 599.289062 514.457031 L 614.953125 523.503906 C 616.339844 524.300781 616.339844 525.601562 614.953125 526.402344 L 599.289062 535.445312 " fill-opacity="1" fill-rule="nonzero"/><path fill="#8581d2" d="M 650.285156 564.835938 C 648.902344 565.636719 646.652344 565.636719 645.265625 564.835938 L 604.285156 541.175781 C 602.898438 540.375 602.898438 539.078125 604.285156 538.277344 L 619.949219 529.230469 C 621.339844 528.433594 623.585938 528.433594 624.972656 529.230469 L 665.953125 552.894531 C 667.335938 553.695312 667.335938 554.992188 665.953125 555.792969 L 650.285156 564.835938 " fill-opacity="1" fill-rule="nonzero"/><path fill="#8581d2" d="M 564.621094 544.796875 C 563.234375 545.59375 560.984375 545.59375 559.597656 544.796875 L 540.730469 533.898438 C 539.34375 533.101562 539.34375 531.804688 540.730469 531.003906 L 545.429688 528.289062 C 546.816406 527.488281 549.066406 527.488281 550.449219 528.289062 L 569.320312 539.183594 C 570.703125 539.988281 570.703125 541.28125 569.320312 542.082031 L 564.621094 544.796875 " fill-opacity="1" fill-rule="nonzero"/><path fill="#8581d2" d="M 606.6875 555.1875 C 605.300781 555.988281 603.054688 555.988281 601.667969 555.1875 L 582.796875 544.292969 C 581.410156 543.492188 581.410156 542.195312 582.796875 541.394531 L 587.496094 538.679688 C 588.882812 537.882812 591.128906 537.882812 592.515625 538.679688 L 611.386719 549.578125 C 612.773438 550.375 612.773438 551.671875 611.382812 552.472656 L 606.6875 555.1875 " fill-opacity="1" fill-rule="nonzero"/><path fill="#8581d2" d="M 594.648438 562.132812 C 593.265625 562.9375 591.015625 562.9375 589.632812 562.132812 L 570.761719 551.242188 C 569.378906 550.441406 569.378906 549.144531 570.761719 548.339844 L 575.460938 545.628906 C 576.84375 544.828125 579.097656 544.828125 580.480469 545.628906 L 599.351562 556.523438 C 600.738281 557.324219 600.738281 558.621094 599.351562 559.425781 L 594.648438 562.132812 " fill-opacity="1" fill-rule="nonzero"/><path fill="#8581d2" d="M 624.789062 579.472656 C 623.398438 580.277344 621.152344 580.277344 619.765625 579.472656 L 600.898438 568.578125 C 599.511719 567.777344 599.511719 566.480469 600.898438 565.683594 L 605.597656 562.96875 C 606.980469 562.171875 609.226562 562.171875 610.617188 562.96875 L 629.488281 573.863281 C 630.871094 574.664062 630.871094 575.960938 629.488281 576.761719 L 624.789062 579.472656 " fill-opacity="1" fill-rule="nonzero"/><path fill="#2b2873" d="M 725.414062 548.636719 L 719.300781 552.164062 C 718.078125 552.871094 717.082031 552.296875 717.082031 550.886719 C 717.082031 549.476562 718.078125 547.757812 719.300781 547.050781 L 725.414062 543.519531 C 726.640625 542.816406 727.628906 543.386719 727.628906 544.796875 C 727.628906 546.210938 726.640625 547.929688 725.414062 548.636719 " fill-opacity="1" fill-rule="nonzero"/><path fill="#5e58e8" d="M 726.5 543.234375 C 726.679688 543.503906 726.796875 543.859375 726.796875 544.316406 C 726.796875 545.726562 725.804688 547.445312 724.578125 548.152344 L 718.464844 551.6875 C 718.066406 551.914062 717.703125 551.992188 717.378906 551.96875 C 717.761719 552.527344 718.472656 552.644531 719.300781 552.164062 L 725.414062 548.636719 C 726.640625 547.929688 727.628906 546.210938 727.628906 544.796875 C 727.628906 543.84375 727.171875 543.285156 726.5 543.234375 " fill-opacity="1" fill-rule="nonzero"/><path fill="#7d79e8" d="M 726.011719 546.359375 L 718.699219 550.582031 L 718.699219 549.324219 L 726.011719 545.105469 L 726.011719 546.359375 " fill-opacity="1" fill-rule="nonzero"/><path fill="#5650d4" d="M 717.707031 548.753906 L 718.699219 549.324219 L 726.011719 545.105469 L 724.34375 544.140625 L 719.300781 547.050781 C 718.671875 547.414062 718.109375 548.039062 717.707031 548.753906 " fill-opacity="1" fill-rule="nonzero"/><path fill="#403ab5" d="M 717.269531 549.753906 L 718.699219 550.582031 L 718.699219 549.324219 L 717.707031 548.753906 C 717.527344 549.074219 717.378906 549.414062 717.269531 549.753906 " fill-opacity="1" fill-rule="nonzero"/><path fill="#2b2873" d="M 739.105469 540.714844 L 732.984375 544.246094 C 731.761719 544.953125 730.769531 544.378906 730.769531 542.96875 C 730.769531 541.554688 731.761719 539.839844 732.984375 539.132812 L 739.105469 535.601562 C 740.328125 534.894531 741.316406 535.46875 741.316406 536.878906 C 741.316406 538.292969 740.328125 540.011719 739.105469 540.714844 " fill-opacity="1" fill-rule="nonzero"/><path fill="#5e58e8" d="M 740.1875 535.3125 C 740.371094 535.582031 740.480469 535.941406 740.480469 536.398438 C 740.480469 537.8125 739.492188 539.527344 738.269531 540.238281 L 732.152344 543.765625 C 731.757812 543.992188 731.386719 544.078125 731.066406 544.050781 C 731.445312 544.609375 732.160156 544.726562 732.984375 544.246094 L 739.105469 540.714844 C 740.328125 540.011719 741.316406 538.292969 741.316406 536.878906 C 741.316406 535.925781 740.859375 535.367188 740.1875 535.3125 " fill-opacity="1" fill-rule="nonzero"/><path fill="#7d79e8" d="M 739.699219 538.441406 L 732.390625 542.667969 L 732.390625 541.40625 L 739.699219 537.1875 L 739.699219 538.441406 " fill-opacity="1" fill-rule="nonzero"/><path fill="#5650d4" d="M 731.394531 540.835938 L 732.390625 541.40625 L 739.699219 537.1875 L 738.03125 536.222656 L 732.984375 539.132812 C 732.359375 539.496094 731.796875 540.121094 731.394531 540.835938 " fill-opacity="1" fill-rule="nonzero"/><path fill="#403ab5" d="M 730.957031 541.839844 L 732.390625 542.667969 L 732.390625 541.40625 L 731.394531 540.835938 C 731.214844 541.15625 731.066406 541.496094 730.957031 541.839844 " fill-opacity="1" fill-rule="nonzero"/><path fill="#756fe8" d="M 765.15625 259.117188 L 460.515625 83.246094 C 456.773438 81.082031 453.410156 81.042969 451.09375 82.703125 L 444.988281 87.042969 C 447.3125 85.382812 450.683594 85.4375 454.429688 87.601562 L 759.0625 263.472656 C 762.800781 265.625 766.128906 269.460938 768.449219 273.785156 L 775.019531 270.382812 C 772.699219 265.675781 769.160156 261.429688 765.15625 259.117188 " fill-opacity="1" fill-rule="nonzero"/><path fill="#423eaf" d="M 768.449219 273.785156 C 770.460938 277.539062 771.71875 281.648438 771.71875 285.398438 L 771.71875 491.902344 C 771.71875 495.640625 770.488281 498.332031 768.484375 499.761719 L 774.585938 495.421875 C 776.59375 493.996094 777.808594 491.289062 777.808594 487.550781 L 777.8125 281.042969 C 777.8125 277.609375 776.738281 273.871094 775.019531 270.382812 L 768.449219 273.785156 " fill-opacity="1" fill-rule="nonzero"/><path fill="#d3d0fb" d="M 454.421875 323.347656 C 447.441406 319.316406 441.765625 309.480469 441.765625 301.417969 L 441.765625 94.914062 C 441.765625 86.851562 447.445312 83.570312 454.425781 87.601562 L 759.058594 263.472656 C 766.039062 267.5 771.714844 277.335938 771.714844 285.398438 L 771.714844 491.902344 C 771.714844 499.96875 766.035156 503.246094 759.058594 499.21875 L 454.421875 323.347656 " fill-opacity="1" fill-rule="nonzero"/><path fill="#302d80" d="M 759.050781 495.628906 C 764.324219 498.667969 768.605469 496.199219 768.605469 490.109375 L 768.609375 283.605469 C 768.609375 277.519531 764.324219 270.101562 759.054688 267.0625 L 454.429688 91.191406 C 449.164062 88.15625 444.875 90.628906 444.875 96.710938 L 444.875 303.214844 C 444.875 309.300781 449.15625 316.722656 454.425781 319.761719 L 759.050781 495.628906 " fill-opacity="1" fill-rule="nonzero"/><path fill="#b8b5ff" d="M 448.328125 97.414062 C 448.328125 93.972656 450.769531 92.566406 453.746094 94.285156 C 461.988281 99.042969 745.636719 262.796875 759.703125 270.914062 C 762.707031 272.648438 765.164062 276.90625 765.164062 280.371094 C 765.164062 291.726562 765.164062 477.667969 765.164062 488.636719 C 765.164062 491.957031 762.808594 493.3125 759.933594 491.652344 L 453.472656 314.730469 C 450.640625 313.09375 448.320312 309.078125 448.320312 305.804688 C 448.320312 89.394531 448.328125 97.636719 448.328125 97.414062 " fill-opacity="1" fill-rule="nonzero"/><path fill="#928cff" d="M 682.515625 232.644531 L 489.214844 120.3125 L 491.15625 119.1875 L 684.457031 231.523438 L 682.515625 232.644531 " fill-opacity="1" fill-rule="nonzero"/><g clip-path="url(#2d4304c02b)"><g clip-path="url(#d8f8ca8b07)"><g clip-path="url(#133ca4af32)"><g clip-path="url(#4cd4f19b34)"><path fill="url(#2e3fc0b23e)" d="M 787.667969 358.28125 L 422.746094 146.371094 L 230.328125 477.691406 L 595.25 689.601562 Z M 787.667969 358.28125 " fill-rule="nonzero"/></g></g></g></g><path fill="#4441bf" d="M 446.042969 377.84375 C 440.5 377.402344 435.46875 375.5625 430.515625 373.753906 C 428.96875 373.1875 427.441406 372.628906 425.917969 372.121094 C 424.765625 371.765625 424.667969 371.765625 424.035156 371.761719 C 423.988281 371.859375 423.933594 371.988281 423.890625 372.089844 C 424.285156 372.625 424.597656 373.050781 427 374.488281 L 451.808594 388.90625 C 457.167969 391.933594 463.535156 394.152344 464.242188 394.394531 C 465.765625 394.902344 467.296875 395.460938 468.84375 396.023438 C 473.796875 397.835938 478.828125 399.671875 484.371094 400.113281 C 488.277344 400.265625 485.882812 397.769531 485.777344 397.660156 C 485.128906 396.996094 484.40625 396.550781 483.644531 396.078125 L 458.835938 381.664062 C 453.085938 378.5 446.328125 377.867188 446.042969 377.84375 Z M 461.351562 392.71875 C 459.691406 392.144531 456.839844 390.957031 454.253906 389.488281 L 429.445312 375.074219 C 428.484375 374.5 428.023438 374.199219 427.652344 373.746094 C 428.0625 373.566406 428.0625 373.566406 428.804688 373.800781 C 430.332031 374.308594 431.859375 374.863281 433.402344 375.429688 C 438.355469 377.242188 443.386719 379.078125 448.929688 379.519531 C 450.65625 379.699219 453.59375 380.417969 456.195312 381.863281 L 481.003906 396.277344 C 482.335938 397.089844 482.621094 397.488281 482.730469 398.023438 C 482.394531 398.4375 482.394531 398.4375 481.484375 398.4375 C 475.941406 397.996094 470.910156 396.15625 465.953125 394.347656 C 464.410156 393.78125 462.878906 393.226562 461.351562 392.71875 " fill-opacity="1" fill-rule="nonzero"/><path fill="#96a1fa" d="M 496.234375 405.164062 C 496.035156 405.195312 495.773438 405.226562 495.578125 405.257812 C 495.492188 405.414062 495.375 405.628906 495.285156 405.789062 C 495.632812 406.160156 496.167969 406.585938 496.59375 406.867188 L 607.261719 471.175781 C 607.808594 471.472656 612.671875 474.023438 613.890625 472.320312 C 613.421875 471.527344 613.421875 471.527344 612.59375 471.015625 L 501.929688 406.703125 C 498.914062 405.136719 496.5 405.15625 496.234375 405.164062 " fill-opacity="1" fill-rule="nonzero"/><path fill="#96a1fa" d="M 486.667969 404.015625 C 486.4375 403.972656 486.125 403.929688 485.894531 403.929688 C 486.042969 404.324219 486.058594 404.375 487.277344 405.097656 L 539.539062 435.464844 C 539.722656 435.570312 544.003906 438 545.699219 437.925781 C 545.59375 437.476562 545.578125 437.394531 544.367188 436.667969 L 492.109375 406.300781 C 489.71875 404.953125 487.320312 404.183594 486.667969 404.015625 " fill-opacity="1" fill-rule="nonzero"/><path fill="#ec3b3b" d="M 474.734375 394.25 C 471.664062 393.113281 467.40625 391.734375 458.3125 387.75 C 457.589844 386.367188 457.222656 385.324219 456.878906 384.039062 C 455.777344 382.242188 449.722656 380.535156 449.316406 381.066406 C 449.996094 382.867188 450.242188 383.296875 450.960938 384.402344 C 447.390625 382.722656 443.976562 381.070312 440.480469 379.371094 C 439.746094 379.015625 433.0625 375.621094 432.261719 375.761719 C 433.09375 376.871094 440.007812 379.960938 441.214844 380.535156 C 447.722656 383.65625 444.773438 382.246094 451.863281 385.683594 C 452.917969 387.097656 453.414062 388.140625 453.472656 388.226562 C 454.726562 389.433594 460.484375 391.949219 460.960938 391.824219 C 460.910156 391.675781 459.539062 389.71875 459.164062 389.167969 C 462.523438 390.738281 465.933594 392.285156 469.761719 393.925781 C 471.207031 394.523438 473.132812 395.320312 474.578125 395.90625 C 475.453125 396.234375 477.496094 397.007812 478.035156 396.53125 L 478.054688 396.339844 C 477.582031 395.507812 475.992188 394.742188 474.734375 394.25 " fill-opacity="1" fill-rule="nonzero"/><path fill="#4441bf" d="M 406.246094 371.582031 C 405.011719 372.070312 403.753906 372.671875 402.464844 373.417969 C 401.269531 374.109375 400.046875 374.917969 398.792969 375.863281 C 392.523438 380.605469 387.625 387.152344 383.441406 394.042969 C 380.828125 398.824219 381.664062 403.589844 385.566406 406.179688 L 410.375 420.597656 C 414.402344 422.625 418.660156 421.019531 421.765625 416.316406 C 425.949219 409.421875 430.847656 402.878906 437.117188 398.132812 C 438.371094 397.191406 439.597656 396.378906 440.796875 395.6875 C 442.082031 394.941406 443.335938 394.339844 444.574219 393.851562 C 445.0625 393.652344 445.292969 393.550781 445.675781 393.332031 C 444.542969 393.332031 443.042969 393.339844 441.914062 393.386719 C 440.886719 393.464844 439.511719 393.566406 438.484375 393.683594 C 438.292969 393.789062 438.097656 393.898438 437.90625 394.011719 C 436.710938 394.703125 435.480469 395.511719 434.230469 396.457031 C 427.960938 401.199219 423.0625 407.746094 418.875 414.640625 C 417.121094 417.292969 414.601562 418.226562 412.300781 417.070312 L 387.492188 402.652344 C 385.28125 401.183594 384.824219 398.464844 386.328125 395.722656 C 390.511719 388.828125 395.410156 382.28125 401.675781 377.542969 C 402.933594 376.59375 404.15625 375.785156 405.355469 375.09375 C 406.640625 374.351562 407.902344 373.746094 409.132812 373.261719 C 411.574219 372.449219 414.585938 373.324219 416.59375 374.417969 L 441.402344 388.839844 C 441.84375 389.105469 442.054688 389.242188 442.398438 389.546875 C 443.535156 389.679688 445.054688 389.859375 446.191406 390.03125 C 445.660156 389.523438 445.246094 389.160156 444.015625 388.421875 L 419.207031 374.007812 C 415.449219 371.929688 410.066406 370.203125 406.246094 371.582031 " fill-opacity="1" fill-rule="nonzero"/><path fill="#25a83c" d="M 408.046875 376.460938 C 404.492188 378.628906 402.527344 396.007812 402.160156 400.148438 C 401.9375 402.890625 400.933594 406.800781 404.710938 407.277344 C 406.519531 407.210938 405.777344 407.222656 412.210938 403.453125 C 423.445312 397.125 433.109375 393.199219 445.675781 393.332031 L 447.78125 393.429688 C 455.953125 394.125 455.953125 394.125 456.117188 394.042969 L 456.246094 393.878906 C 456.054688 392.648438 452.816406 391.523438 451.625 391.148438 L 451.128906 391.023438 C 435.480469 387.539062 424.683594 389.488281 410.011719 396.914062 C 411.457031 388.28125 412.011719 387.277344 415.066406 378.550781 C 414.972656 376.246094 410.117188 375.292969 408.046875 376.460938 " fill-opacity="1" fill-rule="nonzero"/><path fill="#96a1fa" d="M 456.613281 397.742188 C 456.234375 397.898438 455.78125 398.257812 455.5625 398.601562 C 455.835938 399.570312 455.84375 399.585938 456.859375 400.277344 L 567.523438 464.585938 C 569.605469 465.625 573.1875 466.210938 574.285156 464.804688 C 573.984375 464.015625 573.984375 464.015625 572.96875 463.359375 L 462.300781 399.050781 C 459.015625 397.324219 456.988281 397.65625 456.613281 397.742188 " fill-opacity="1" fill-rule="nonzero"/><path fill="#96a1fa" d="M 445.742188 403.035156 C 445.066406 403.800781 443.273438 405.828125 445.605469 407.375 L 497.867188 437.742188 C 500.925781 439.292969 505.859375 436.550781 505.15625 434.394531 C 505.074219 434.144531 504.816406 433.648438 503.988281 433.117188 L 451.730469 402.75 C 448.980469 401.304688 446.339844 402.46875 445.742188 403.035156 " fill-opacity="1" fill-rule="nonzero"/><path fill="#4441bf" d="M 406.546875 443.363281 C 406.234375 444.039062 405.921875 444.5 405.753906 444.753906 C 403.054688 448.648438 400.160156 451.78125 396.773438 453.738281 C 396.121094 454.113281 395.453125 454.445312 394.761719 454.734375 C 390.878906 456.34375 388.308594 455.691406 386.03125 454.367188 L 383.144531 452.691406 C 385.421875 454.015625 387.992188 454.667969 391.875 453.058594 C 392.5625 452.769531 393.234375 452.4375 393.886719 452.0625 C 396.199219 450.722656 398.285156 448.835938 400.230469 446.53125 C 401.160156 446.101562 402.386719 445.503906 403.304688 445.046875 C 405.296875 443.964844 405.371094 443.921875 406.640625 443.160156 C 406.613281 443.222656 406.578125 443.300781 406.546875 443.363281 " fill-opacity="1" fill-rule="nonzero"/><path fill="#4441bf" d="M 404.089844 432.429688 C 405.117188 433.074219 405.667969 433.628906 406.347656 434.714844 C 404.5 436.054688 404.265625 436.222656 402.96875 437.105469 C 402.453125 436.5 402.453125 436.5 377.136719 421.785156 C 374.644531 420.734375 372.476562 421.492188 370.3125 424.160156 C 367.613281 428.050781 364.726562 431.191406 361.332031 433.144531 C 360.683594 433.519531 360.011719 433.851562 359.320312 434.140625 C 355.441406 435.75 352.871094 435.101562 350.589844 433.777344 L 347.703125 432.097656 C 351.148438 434.007812 358.289062 435.296875 367.425781 422.476562 C 371.011719 418.023438 372.957031 415.265625 378.214844 417.960938 C 383.046875 420.433594 390.25 424.699219 404.089844 432.429688 " fill-opacity="1" fill-rule="nonzero"/><path fill="#25a83c" d="M 414.65625 430.777344 C 415.722656 431.820312 415.777344 432.242188 415.925781 433.765625 C 415.632812 437.441406 414.234375 438.214844 408.515625 441.976562 C 399.835938 447.46875 389.9375 451.488281 379.949219 449.453125 C 374.992188 448.242188 373.140625 446.878906 364.574219 441.902344 C 364.601562 441.90625 364.8125 441.765625 364.8125 441.765625 C 367.421875 438.457031 368.289062 435.222656 368.941406 431.257812 C 369.976562 427.242188 376.175781 426.390625 376.570312 430.695312 C 376.480469 432.128906 376.046875 435.292969 375.4375 438.097656 C 374.183594 442.898438 373.890625 442.941406 372.25 445.265625 C 377.351562 446.46875 383.320312 445.820312 387.960938 444.492188 C 389.25 444.09375 390.851562 443.601562 392.785156 442.785156 C 394.078125 442.210938 395.542969 441.5625 397.417969 440.535156 C 402.445312 437.664062 406.269531 434.882812 410.839844 431.261719 C 412.027344 430.316406 413.335938 430.007812 414.65625 430.777344 " fill-opacity="1" fill-rule="nonzero"/><path fill="#96a1fa" d="M 417.171875 445.199219 C 415.984375 447.597656 416.214844 449.242188 417.914062 450.527344 L 528.582031 514.835938 C 532.71875 516.621094 535.269531 511.761719 534.324219 509.007812 C 534.019531 508.125 533.480469 507.703125 533.039062 507.363281 L 422.375 443.054688 C 419.371094 441.808594 417.511719 444.625 417.171875 445.199219 " fill-opacity="1" fill-rule="nonzero"/><path fill="#96a1fa" d="M 408.105469 456.746094 C 406.640625 458.0625 406.722656 459.40625 408.324219 460.433594 L 460.582031 490.800781 C 464.089844 492.652344 467.851562 490.667969 467.261719 488.101562 C 467.03125 487.113281 466.261719 486.613281 465.933594 486.394531 L 413.671875 456.027344 C 411.375 454.847656 409.027344 455.980469 408.105469 456.746094 " fill-opacity="1" fill-rule="nonzero"/><path fill="#e7e6ff" d="M 683.019531 409.6875 L 682.699219 232.683594 L 489.390625 120.355469 L 489.988281 297.515625 L 683.019531 409.6875 " fill-opacity="1" fill-rule="nonzero"/><g clip-path="url(#b40e9d8c81)"><path fill="#4441bf" d="M 684.457031 231.523438 L 684.960938 408.566406 C 684.972656 413.113281 684.109375 453.640625 650.324219 477.21875 C 648.921875 478.191406 647.550781 479.058594 646.21875 479.835938 C 630.824219 488.722656 619.589844 484.609375 609.570312 480.96875 C 600.855469 477.777344 592.601562 474.75 582.730469 480.449219 C 581.632812 481.082031 580.523438 481.820312 579.386719 482.675781 C 569.851562 489.894531 563.796875 501.429688 557.953125 512.585938 C 552.234375 523.492188 546.792969 533.828125 538.757812 538.464844 C 538.019531 538.890625 537.257812 539.269531 536.472656 539.59375 C 530.414062 542.109375 527.175781 539.765625 524.046875 537.480469 C 520.902344 535.183594 517.914062 533.023438 512.152344 535.964844 C 511.828125 536.128906 511.507812 536.304688 511.191406 536.484375 C 505.230469 539.929688 501.035156 546.25 496.203125 553.535156 C 490.738281 561.75 484.558594 571.0625 474.785156 576.703125 C 468.585938 580.28125 465.296875 584.074219 461.835938 588.085938 C 457.972656 592.574219 453.988281 597.171875 445.984375 601.796875 L 225.523438 729.066406 L 225.519531 726.832031 L 445.980469 599.5625 C 453.507812 595.214844 457.285156 590.835938 460.957031 586.601562 C 464.46875 582.535156 468.105469 578.320312 474.777344 574.46875 C 483.867188 569.222656 489.507812 560.726562 494.976562 552.492188 C 499.898438 545.097656 504.535156 538.085938 511.175781 534.25 C 511.535156 534.046875 511.898438 533.847656 512.265625 533.660156 C 518.835938 530.308594 522.226562 532.769531 525.5 535.171875 C 528.519531 537.378906 531.386719 539.449219 536.726562 537.234375 C 537.417969 536.945312 538.089844 536.613281 538.742188 536.238281 C 545.90625 532.101562 550.832031 522.707031 556.476562 511.964844 C 562.269531 500.921875 568.84375 488.378906 579.085938 480.632812 C 580.335938 479.6875 581.5625 478.878906 582.761719 478.1875 C 593.265625 472.125 601.808594 475.234375 610.808594 478.523438 C 620.996094 482.242188 631.496094 486.089844 646.109375 477.652344 C 647.414062 476.902344 648.75 476.050781 650.125 475.089844 C 682.210938 452.71875 683.03125 414.035156 683.019531 409.6875 L 682.515625 232.644531 L 684.457031 231.523438 " fill-opacity="1" fill-rule="nonzero"/></g><path fill="#f8f7ff" d="M 760.59375 480.394531 L 760.289062 280.175781 C 760.28125 276.21875 758.171875 272.570312 754.75 270.589844 L 458.519531 99.425781 C 455.617188 97.75 451.984375 99.851562 451.992188 103.203125 L 452.554688 302.777344 C 452.5625 305.816406 454.183594 308.625 456.820312 310.148438 L 756.035156 483.035156 C 758.0625 484.207031 760.597656 482.738281 760.59375 480.394531 " fill-opacity="1" fill-rule="nonzero"/><path fill="#4441bf" d="M 495.316406 338.789062 C 482.203125 368.890625 466.25 367.230469 465.875 376.757812 C 465.828125 377.933594 466.234375 378.378906 467.640625 379.28125 L 492.445312 393.703125 C 496.757812 395.960938 502.820312 396.316406 508.15625 392.59375 C 521.03125 383.617188 528.867188 372.019531 533.640625 361.058594 C 536.175781 354.480469 533.457031 349.75 530.367188 347.699219 L 505.554688 333.285156 C 499.867188 330.425781 496.5 336.183594 495.316406 338.789062 Z M 503.375 392.179688 C 500.90625 393.605469 497.53125 393.277344 495.511719 392.265625 L 470.707031 377.847656 C 463.652344 373.152344 485.042969 370.671875 498.203125 340.46875 C 499.722656 337.273438 501.925781 336.105469 504.242188 337.261719 L 529.050781 351.679688 C 531.316406 353.191406 531.980469 356.21875 530.753906 359.382812 C 525.980469 370.339844 518.140625 381.941406 505.269531 390.914062 C 504.628906 391.359375 504 391.78125 503.375 392.179688 " fill-opacity="1" fill-rule="nonzero"/><path fill="#96a1fa" d="M 544.308594 360.660156 C 543.535156 363.417969 543.96875 365.3125 545.664062 366.621094 L 656.332031 430.929688 C 660.09375 432.476562 662.222656 427.339844 660.761719 424.289062 C 660.339844 423.402344 659.773438 422.976562 659.316406 422.636719 L 548.648438 358.328125 C 545.828125 357.121094 544.613281 359.808594 544.308594 360.660156 " fill-opacity="1" fill-rule="nonzero"/><path fill="#96a1fa" d="M 536.46875 376.832031 C 535.253906 378.882812 534.640625 381.546875 536.539062 382.855469 L 588.800781 413.222656 C 592.554688 415.042969 596.800781 409.414062 595.390625 405.984375 C 595.066406 405.1875 594.558594 404.839844 594.257812 404.636719 L 541.996094 374.265625 C 539.644531 373.117188 537.414062 375.339844 536.46875 376.832031 " fill-opacity="1" fill-rule="nonzero"/><path fill="#4441bf" d="M 516.265625 152.769531 L 516.289062 160.496094 C 516.300781 163.289062 518.269531 166.707031 520.6875 168.109375 L 651.566406 244.167969 C 654.003906 245.582031 655.964844 244.453125 655.957031 241.65625 L 655.9375 233.925781 C 655.929688 231.109375 653.957031 227.695312 651.519531 226.28125 L 520.640625 150.222656 C 518.21875 148.820312 516.257812 149.949219 516.265625 152.769531 " fill-opacity="1" fill-rule="nonzero"/><path fill="#4441bf" d="M 500.8125 178.617188 C 500.816406 180.511719 502.164062 182.835938 503.816406 183.796875 L 668.605469 279.558594 C 670.257812 280.515625 671.578125 279.738281 671.566406 277.847656 C 671.5625 275.9375 670.238281 273.617188 668.585938 272.652344 L 503.796875 176.894531 C 502.144531 175.933594 500.808594 176.707031 500.8125 178.617188 " fill-opacity="1" fill-rule="nonzero"/><path fill="#4441bf" d="M 527.921875 207.386719 C 527.925781 209.277344 529.273438 211.605469 530.90625 212.554688 L 641.570312 276.863281 C 643.226562 277.824219 644.5625 277.054688 644.554688 275.164062 C 644.546875 273.253906 643.203125 270.921875 641.554688 269.960938 L 530.886719 205.652344 C 529.25 204.703125 527.914062 205.472656 527.921875 207.386719 " fill-opacity="1" fill-rule="nonzero"/><path fill="#4441bf" d="M 502.414062 228.539062 L 502.5 257.234375 C 502.507812 261.5625 505.542969 266.820312 509.285156 268.992188 L 534.09375 283.410156 C 537.816406 285.570312 540.835938 283.832031 540.824219 279.507812 L 540.738281 250.816406 C 540.738281 250.296875 540.695312 249.761719 540.609375 249.222656 L 539.164062 251.203125 L 537.863281 252.992188 L 537.933594 277.828125 C 537.941406 280.304688 536.207031 281.304688 534.085938 280.070312 L 509.277344 265.65625 C 507.136719 264.410156 505.390625 261.386719 505.382812 258.910156 L 505.300781 230.21875 C 505.292969 227.765625 507.027344 226.761719 509.167969 228.007812 L 533.976562 242.421875 C 534.382812 242.65625 534.773438 242.960938 535.140625 243.304688 L 536.632812 241.265625 C 535.816406 240.382812 534.914062 239.636719 533.96875 239.085938 L 509.160156 224.671875 C 505.417969 222.496094 502.402344 224.238281 502.414062 228.539062 " fill-opacity="1" fill-rule="nonzero"/><path fill="#25a83c" d="M 507.835938 236.011719 C 507.835938 236.496094 507.921875 237.015625 508.046875 237.441406 C 508.183594 237.929688 520.394531 266.902344 521.003906 267.972656 C 522.417969 270.214844 523.722656 270.53125 524.800781 270.394531 C 525.140625 270.25 525.019531 270.316406 525.320312 270.09375 C 525.570312 269.820312 543.777344 244.96875 543.957031 244.507812 C 544.238281 243.550781 544.09375 242.796875 543.828125 241.859375 C 543.398438 240.804688 543.140625 240.390625 543.144531 240.398438 C 542.085938 238.835938 540.40625 237.261719 538.828125 238.292969 C 538.417969 238.808594 523.277344 259.550781 522.878906 260.097656 C 513.671875 238.113281 512.386719 232.839844 508.71875 234.171875 L 508.351562 234.464844 C 508.015625 234.773438 507.835938 235.550781 507.835938 236.011719 " fill-opacity="1" fill-rule="nonzero"/><path fill="#96a1fa" d="M 549.269531 251.410156 C 549.277344 253.304688 550.621094 255.632812 552.273438 256.589844 L 662.9375 320.898438 C 664.574219 321.851562 665.910156 321.078125 665.90625 319.1875 C 665.898438 317.277344 664.554688 314.96875 662.917969 314.015625 L 552.25 249.707031 C 550.601562 248.746094 549.265625 249.5 549.269531 251.410156 " fill-opacity="1" fill-rule="nonzero"/><path fill="#96a1fa" d="M 549.304688 264.449219 C 549.3125 266.363281 550.660156 268.667969 552.308594 269.628906 L 604.574219 299.996094 C 606.222656 300.957031 607.542969 300.199219 607.535156 298.285156 C 607.53125 296.375 606.203125 294.082031 604.550781 293.117188 L 552.289062 262.746094 C 550.636719 261.785156 549.300781 262.539062 549.304688 264.449219 " fill-opacity="1" fill-rule="nonzero"/><path fill="#4441bf" d="M 502.570312 283.332031 L 502.652344 312.023438 C 502.664062 316.332031 505.703125 321.589844 509.441406 323.761719 L 534.25 338.179688 C 537.972656 340.339844 540.988281 338.601562 540.976562 334.296875 L 540.898438 305.605469 C 540.894531 305.078125 540.847656 304.539062 540.761719 303.992188 L 539.316406 305.972656 L 538.019531 307.761719 L 538.089844 332.617188 C 538.097656 335.074219 536.363281 336.070312 534.238281 334.839844 L 509.429688 320.425781 C 507.292969 319.179688 505.542969 316.15625 505.539062 313.699219 L 505.457031 285.011719 C 505.453125 282.535156 507.183594 281.53125 509.324219 282.777344 L 534.132812 297.191406 C 534.535156 297.425781 534.925781 297.730469 535.292969 298.074219 L 536.789062 296.035156 C 535.972656 295.152344 535.066406 294.40625 534.125 293.855469 L 509.316406 279.433594 C 505.574219 277.261719 502.554688 279.007812 502.570312 283.332031 " fill-opacity="1" fill-rule="nonzero"/><path fill="#25a83c" d="M 507.996094 290.800781 C 507.996094 291.277344 508.082031 291.78125 508.207031 292.230469 C 508.449219 293.058594 520.546875 321.824219 521.441406 323.183594 C 522.632812 324.714844 524.347656 326.019531 525.703125 324.636719 C 525.988281 324.234375 543.9375 299.6875 544.109375 299.292969 C 544.371094 298.320312 544.28125 297.664062 543.980469 296.625 C 543.550781 295.578125 543.292969 295.15625 543.296875 295.167969 C 542.140625 293.460938 540.097656 291.796875 538.773438 293.324219 C 530.617188 304.457031 530.726562 304.378906 523.03125 314.867188 C 521.558594 311.347656 514.753906 295.308594 513.414062 292.167969 C 512.683594 290.546875 511.085938 288.566406 509.34375 288.769531 L 508.871094 288.941406 C 508.46875 289.261719 508.203125 289.425781 508.0625 290.175781 C 508.027344 290.378906 507.992188 290.582031 507.996094 290.800781 " fill-opacity="1" fill-rule="nonzero"/><path fill="#96a1fa" d="M 549.425781 306.183594 C 549.429688 308.09375 550.773438 310.398438 552.425781 311.359375 L 663.09375 375.667969 C 664.726562 376.621094 666.0625 375.867188 666.058594 373.957031 C 666.050781 372.042969 664.707031 369.738281 663.070312 368.785156 L 552.410156 304.476562 C 550.753906 303.519531 549.417969 304.269531 549.425781 306.183594 " fill-opacity="1" fill-rule="nonzero"/><path fill="#96a1fa" d="M 549.464844 319.21875 C 549.46875 321.128906 550.8125 323.4375 552.464844 324.398438 L 604.726562 354.765625 C 606.378906 355.726562 607.695312 354.96875 607.691406 353.054688 C 607.683594 351.167969 606.359375 348.847656 604.707031 347.886719 L 552.449219 317.515625 C 550.792969 316.554688 549.457031 317.328125 549.464844 319.21875 " fill-opacity="1" fill-rule="nonzero"/><path fill="#f8f7ff" d="M 252.667969 487.222656 L 32.214844 614.496094 L 225.515625 726.832031 L 445.980469 599.5625 L 252.667969 487.222656 " fill-opacity="1" fill-rule="nonzero"/><path fill="#f8f7ff" d="M 522.921875 533.421875 L 329.894531 421.25 C 327.265625 419.71875 324.132812 418.996094 319.238281 421.488281 C 318.871094 421.675781 318.507812 421.875 318.148438 422.078125 C 311.503906 425.914062 306.867188 432.929688 301.945312 440.320312 C 296.476562 448.554688 290.835938 457.050781 281.75 462.296875 C 275.078125 466.148438 271.441406 470.363281 267.925781 474.429688 C 264.257812 478.664062 260.203125 482.882812 252.671875 487.226562 L 445.980469 599.5625 C 453.507812 595.214844 457.285156 590.835938 460.957031 586.601562 C 464.46875 582.535156 468.105469 578.320312 474.777344 574.46875 C 483.867188 569.222656 489.507812 560.726562 494.976562 552.492188 C 499.898438 545.097656 504.535156 538.085938 511.175781 534.25 C 511.535156 534.046875 511.898438 533.847656 512.265625 533.660156 C 517.164062 531.164062 520.292969 531.894531 522.921875 533.421875 " fill-opacity="1" fill-rule="nonzero"/><path fill="#4441bf" d="M 326.515625 432.664062 C 318.953125 439.367188 313.761719 450.449219 306.300781 459.402344 C 304.75 461.410156 301.683594 466.445312 306.734375 469.777344 L 331.542969 484.195312 C 335.1875 486.054688 340.644531 485.992188 344.625 481.671875 C 347.703125 477.984375 350.375 473.957031 353.007812 469.992188 C 362.46875 455.773438 363.566406 456.515625 366.007812 453.773438 C 363.421875 454.539062 361.753906 455.097656 358.910156 456.3125 C 352.914062 463 348.144531 472.308594 341.738281 479.996094 C 339.761719 482.15625 336.816406 482.785156 334.414062 481.5625 L 309.605469 467.144531 C 307.5 465.75 307.339844 463.484375 309.1875 461.078125 C 316.648438 452.125 321.839844 441.046875 329.40625 434.339844 C 331.875 432.363281 335.101562 432.582031 337.207031 433.675781 L 362.015625 448.09375 C 362.433594 448.355469 362.796875 448.601562 363.023438 449.066406 C 366.664062 448.03125 370.402344 449.535156 362.566406 444.882812 C 358.621094 442.539062 351.550781 438.945312 340.421875 432.0625 C 337.230469 430.085938 334.390625 429.257812 331.480469 429.753906 C 330.730469 429.878906 328.128906 431.304688 326.515625 432.664062 " fill-opacity="1" fill-rule="nonzero"/><path fill="#25a83c" d="M 328.511719 439.277344 C 326.664062 441.527344 325.976562 458.953125 325.234375 465.921875 C 325.105469 467.039062 324.976562 468.15625 324.824219 469.265625 C 324.757812 470.527344 324.945312 471.21875 326.152344 472.101562 C 327.085938 472.644531 328.578125 472.761719 329.925781 472.101562 C 345.816406 464.289062 352.789062 457.609375 366.007812 453.773438 C 369.917969 452.75 376.398438 452.8125 377.789062 451.457031 C 378.777344 450.230469 374.398438 448.570312 372.839844 448.398438 C 357.617188 446.691406 343.417969 456.886719 332.859375 462.917969 C 333.304688 456.644531 334.09375 447.128906 335.316406 440.925781 C 335.988281 437.53125 330.734375 436.742188 328.511719 439.277344 " fill-opacity="1" fill-rule="nonzero"/><path fill="#96a1fa" d="M 377.230469 457.027344 C 374.503906 459.097656 376.890625 460.769531 377.171875 460.953125 L 487.839844 525.261719 C 490.675781 526.554688 494.304688 525.210938 494.722656 523.730469 C 494.601562 523.527344 494.4375 523.261719 494.3125 523.058594 C 494.460938 522.832031 494.65625 522.527344 494.800781 522.304688 C 494.660156 522.007812 494.457031 521.589844 494.179688 521.410156 L 383.515625 457.101562 C 383.09375 456.917969 378.632812 456.152344 377.230469 457.027344 " fill-opacity="1" fill-rule="nonzero"/><path fill="#96a1fa" d="M 366.800781 467.328125 C 365.46875 469.308594 365.695312 471.382812 367.363281 472.496094 L 419.625 502.867188 C 422.851562 504.484375 426.722656 500.601562 425.789062 497.75 C 425.5 496.875 424.933594 496.5 424.558594 496.25 L 372.296875 465.882812 C 369.9375 464.6875 367.714844 466.09375 366.800781 467.328125 " fill-opacity="1" fill-rule="nonzero"/><path fill="#96a1fa" d="M 333.347656 502.835938 C 331.582031 504.847656 332.609375 506.285156 333.78125 507.140625 L 444.445312 571.449219 C 448.753906 573.414062 451.945312 569.246094 450.863281 567.234375 C 450.683594 566.90625 450.261719 566.589844 449.960938 566.363281 L 339.292969 502.054688 C 335.882812 500.527344 333.449219 502.742188 333.347656 502.835938 " fill-opacity="1" fill-rule="nonzero"/><path fill="#96a1fa" d="M 324.601562 512.375 C 323.359375 513.859375 323.589844 515.554688 325.171875 516.59375 L 377.4375 546.960938 C 380.597656 548.589844 384.53125 546.226562 383.359375 543.398438 C 383.054688 542.648438 382.382812 542.214844 382.0625 542.007812 L 329.800781 511.636719 C 327.382812 510.378906 325.34375 511.566406 324.601562 512.375 " fill-opacity="1" fill-rule="nonzero"/><path fill="#4441bf" d="M 295.070312 518.546875 C 292.929688 519.785156 289.421875 519.785156 287.308594 518.546875 L 262.511719 504.148438 C 260.34375 502.886719 260.375 500.886719 262.511719 499.652344 C 281.378906 488.746094 279.617188 487.996094 286.183594 480.539062 C 288.296875 478.644531 290.679688 478.285156 293.316406 479.46875 L 318.109375 493.890625 C 319.070312 494.578125 319.613281 495.320312 319.808594 496.113281 C 320.675781 500.730469 306.128906 512.171875 295.070312 518.546875 Z M 321.015625 491.425781 L 296.195312 477.027344 C 291.339844 474.832031 287.164062 475.65625 285.140625 477.382812 C 281.121094 480.808594 276.03125 489.894531 259.632812 497.976562 C 255.875 500.121094 255.847656 503.65625 259.578125 505.824219 L 284.375 520.25 C 288.101562 522.417969 294.191406 522.386719 297.949219 520.25 C 314.929688 510.433594 322.132812 501.457031 323.316406 498.199219 C 324.609375 494.824219 322.933594 492.6875 321.015625 491.425781 " fill-opacity="1" fill-rule="nonzero"/><path fill="#ec3b3b" d="M 312.207031 500.613281 C 309.449219 501.007812 300.152344 502.355469 296.828125 502.75 C 296.828125 508.207031 295.964844 511.828125 295.507812 514.570312 C 294.472656 517.164062 287.703125 517.132812 287.359375 514.078125 C 288.03125 511.246094 288.8125 503.722656 288.816406 503.707031 C 283.234375 504.425781 277.597656 504.949219 270.109375 504.453125 C 268.519531 504.351562 266.582031 503.667969 266.40625 502.09375 C 266.621094 501.132812 266.832031 500.570312 268.929688 499.871094 C 269.386719 499.769531 270.078125 499.738281 270.546875 499.707031 C 273.292969 499.707031 280.289062 499.417969 288.621094 497.976562 C 288.0625 489.605469 287.121094 488.082031 286.871094 485.339844 C 287.171875 481.964844 293.015625 481.0625 294.109375 484.8125 C 294.847656 489.703125 295.417969 491.601562 296.277344 496.9375 C 310.667969 495.089844 311.953125 493.980469 313.964844 495.238281 C 316.167969 496.703125 315.660156 499.871094 312.207031 500.613281 " fill-opacity="1" fill-rule="nonzero"/><path fill="#96a1fa" d="M 287.59375 536.109375 C 285.945312 537.0625 285.9375 538.617188 287.589844 539.578125 L 398.257812 603.886719 C 399.890625 604.835938 402.582031 604.835938 404.226562 603.886719 C 405.890625 602.925781 405.898438 601.367188 404.265625 600.417969 L 293.597656 536.109375 C 291.945312 535.148438 289.257812 535.148438 287.59375 536.109375 " fill-opacity="1" fill-rule="nonzero"/><path fill="#96a1fa" d="M 276.242188 542.660156 C 274.601562 543.609375 274.589844 545.171875 276.242188 546.128906 L 328.507812 576.5 C 330.15625 577.460938 332.828125 577.449219 334.476562 576.5 C 336.140625 575.539062 336.164062 573.992188 334.515625 573.03125 L 282.25 542.660156 C 280.601562 541.699219 277.90625 541.699219 276.242188 542.660156 " fill-opacity="1" fill-rule="nonzero"/><path fill="#96a1fa" d="M 239.929688 563.628906 C 238.28125 564.578125 238.273438 566.136719 239.929688 567.097656 L 350.589844 631.40625 C 352.226562 632.355469 354.914062 632.355469 356.5625 631.40625 C 358.226562 630.445312 358.214844 628.898438 356.578125 627.949219 L 245.917969 563.640625 C 244.261719 562.679688 241.589844 562.667969 239.929688 563.628906 " fill-opacity="1" fill-rule="nonzero"/><path fill="#96a1fa" d="M 228.578125 570.179688 C 226.917969 571.140625 226.925781 572.6875 228.578125 573.644531 L 280.839844 604.015625 C 282.492188 604.976562 285.148438 604.976562 286.808594 604.015625 C 288.476562 603.054688 288.480469 601.519531 286.828125 600.558594 L 234.566406 570.191406 C 232.914062 569.230469 230.246094 569.21875 228.578125 570.179688 " fill-opacity="1" fill-rule="nonzero"/><path fill="#96a1fa" d="M 192.265625 591.148438 C 190.601562 592.105469 190.609375 593.652344 192.261719 594.613281 L 302.925781 658.921875 C 304.5625 659.871094 307.230469 659.882812 308.898438 658.921875 C 310.5625 657.960938 310.546875 656.414062 308.914062 655.464844 L 198.25 591.15625 C 196.59375 590.195312 193.925781 590.1875 192.265625 591.148438 " fill-opacity="1" fill-rule="nonzero"/><path fill="#96a1fa" d="M 180.914062 597.695312 C 179.253906 598.65625 179.261719 600.207031 180.914062 601.167969 L 233.175781 631.535156 C 234.828125 632.496094 237.484375 632.496094 239.140625 631.535156 C 240.789062 630.585938 240.816406 629.039062 239.164062 628.078125 L 186.902344 597.710938 C 185.25 596.75 182.5625 596.75 180.914062 597.695312 " fill-opacity="1" fill-rule="nonzero"/><path fill="#96a1fa" d="M 144.597656 618.664062 C 142.933594 619.628906 142.925781 621.183594 144.578125 622.144531 L 255.246094 686.453125 C 256.875 687.402344 259.566406 687.402344 261.230469 686.441406 C 262.875 685.492188 262.882812 683.9375 261.25 682.984375 L 150.582031 618.675781 C 148.929688 617.714844 146.242188 617.714844 144.597656 618.664062 " fill-opacity="1" fill-rule="nonzero"/><path fill="#96a1fa" d="M 133.25 625.214844 C 131.585938 626.175781 131.574219 627.734375 133.230469 628.691406 L 185.492188 659.0625 C 187.140625 660.027344 189.816406 660.011719 191.476562 659.050781 C 193.125 658.101562 193.148438 656.554688 191.5 655.59375 L 139.234375 625.226562 C 137.585938 624.265625 134.894531 624.265625 133.25 625.214844 " fill-opacity="1" fill-rule="nonzero"/><path fill="#4441bf" d="M 236.925781 511.066406 L 211.953125 525.484375 C 208.207031 527.648438 208.171875 531.175781 211.910156 533.351562 L 236.71875 547.765625 C 240.441406 549.929688 246.53125 549.917969 250.28125 547.753906 L 275.253906 533.339844 C 278.996094 531.175781 279.035156 527.648438 275.316406 525.484375 L 250.503906 511.066406 C 246.765625 508.894531 240.671875 508.902344 236.925781 511.066406 Z M 247.394531 546.078125 C 245.238281 547.320312 241.765625 547.308594 239.640625 546.078125 L 214.835938 531.660156 C 212.691406 530.417969 212.6875 528.40625 214.84375 527.164062 L 239.8125 512.742188 C 241.945312 511.511719 245.4375 511.511719 247.582031 512.757812 L 272.386719 527.171875 C 274.507812 528.40625 274.5 530.429688 272.367188 531.660156 L 247.394531 546.078125 " fill-opacity="1" fill-rule="nonzero"/><path fill="#4441bf" d="M 189.261719 538.585938 L 164.289062 553 C 160.527344 555.175781 160.503906 558.695312 164.246094 560.867188 L 189.050781 575.285156 C 192.777344 577.449219 198.851562 577.449219 202.617188 575.277344 L 227.585938 560.855469 C 231.332031 558.695312 231.355469 555.175781 227.628906 553.011719 L 202.824219 538.597656 C 199.078125 536.425781 193.007812 536.425781 189.261719 538.585938 Z M 199.726562 573.59375 C 197.574219 574.839844 194.082031 574.839844 191.960938 573.609375 L 167.148438 559.191406 C 165.011719 557.949219 165.019531 555.925781 167.175781 554.679688 L 192.148438 540.265625 C 194.28125 539.03125 197.773438 539.03125 199.914062 540.273438 L 224.726562 554.691406 C 226.847656 555.925781 226.835938 557.949219 224.699219 559.179688 L 199.726562 573.59375 " fill-opacity="1" fill-rule="nonzero"/><path fill="#4441bf" d="M 141.578125 566.113281 L 116.605469 580.53125 C 112.855469 582.695312 112.839844 586.214844 116.582031 588.386719 L 141.386719 602.800781 C 145.109375 604.964844 151.183594 604.964844 154.929688 602.800781 L 179.902344 588.386719 C 180.359375 588.125 180.757812 587.839844 181.109375 587.542969 L 177.199219 588.109375 L 173.679688 588.636719 L 152.042969 601.125 C 149.90625 602.355469 146.417969 602.355469 144.296875 601.125 L 119.484375 586.710938 C 117.34375 585.464844 117.355469 583.441406 119.492188 582.207031 L 144.460938 567.796875 C 146.617188 566.550781 150.109375 566.550781 152.25 567.796875 L 177.054688 582.207031 C 177.460938 582.445312 177.789062 582.707031 178.035156 582.988281 L 182.078125 582.398438 C 181.613281 581.714844 180.910156 581.078125 179.964844 580.53125 L 155.15625 566.113281 C 151.414062 563.941406 145.34375 563.941406 141.578125 566.113281 " fill-opacity="1" fill-rule="nonzero"/><path fill="#25a83c" d="M 143.222656 571.433594 C 143.03125 571.542969 142.851562 571.664062 142.714844 571.785156 C 142.554688 571.917969 142.414062 572.058594 142.292969 572.210938 C 142.1875 572.351562 142.097656 572.503906 142.027344 572.667969 L 141.195312 574.921875 L 140.324219 577.171875 L 139.476562 579.421875 L 138.625 581.664062 L 137.792969 583.917969 L 136.941406 586.164062 L 136.074219 588.417969 L 135.226562 590.660156 L 135.152344 590.964844 L 135.132812 591.277344 L 135.183594 591.574219 L 135.304688 591.863281 L 135.480469 592.148438 L 135.71875 592.410156 L 136 592.65625 L 136.347656 592.894531 C 136.398438 592.925781 136.820312 593.128906 136.820312 593.128906 L 137.269531 593.292969 L 137.738281 593.421875 L 138.230469 593.523438 L 138.75 593.582031 L 139.273438 593.601562 L 139.796875 593.582031 L 140.339844 593.53125 L 146.488281 592.621094 L 158.753906 590.824219 L 164.898438 589.914062 L 171.046875 589.023438 L 173.679688 588.636719 L 177.199219 588.109375 L 181.109375 587.542969 L 183.332031 587.210938 L 189.464844 586.3125 C 189.742188 586.273438 190.019531 586.214844 190.265625 586.152344 C 190.511719 586.074219 190.757812 585.988281 190.964844 585.890625 C 191.195312 585.796875 191.386719 585.691406 191.578125 585.578125 C 191.753906 585.457031 191.894531 585.332031 192.050781 585.203125 C 192.175781 585.070312 192.296875 584.921875 192.40625 584.777344 L 192.597656 584.320312 L 192.65625 583.847656 C 192.617188 583.683594 192.585938 583.523438 192.511719 583.363281 L 192.429688 583.210938 L 192.34375 583.058594 L 192.222656 582.90625 L 192.101562 582.757812 L 191.945312 582.625 L 191.785156 582.496094 L 191.613281 582.371094 L 191.421875 582.242188 L 191.003906 582.035156 L 190.550781 581.855469 L 190.078125 581.726562 L 189.574219 581.613281 L 189.050781 581.554688 L 188.527344 581.535156 L 187.96875 581.554688 L 187.445312 581.613281 L 182.117188 582.390625 C 182.078125 582.398438 178.035156 582.988281 178.035156 582.988281 L 176.789062 583.167969 L 171.476562 583.960938 L 166.152344 584.738281 L 160.820312 585.515625 L 155.511719 586.304688 L 150.1875 587.082031 L 144.855469 587.863281 L 145.546875 586.09375 L 146.203125 584.320312 L 146.875 582.542969 L 147.53125 580.773438 L 148.222656 579.003906 L 148.878906 577.234375 L 149.554688 575.453125 L 150.207031 573.6875 L 150.300781 573.394531 L 150.316406 573.078125 L 150.265625 572.789062 L 150.144531 572.492188 L 149.96875 572.210938 L 149.730469 571.949219 L 149.433594 571.695312 L 149.105469 571.460938 L 148.875 571.351562 L 148.652344 571.242188 L 148.410156 571.140625 L 148.148438 571.050781 L 147.863281 570.964844 L 147.589844 570.90625 L 147.3125 570.84375 L 147.03125 570.808594 L 146.175781 570.753906 L 145.371094 570.796875 C 145.078125 570.828125 144.832031 570.867188 144.585938 570.929688 C 144.339844 570.988281 144.078125 571.058594 143.871094 571.140625 C 143.640625 571.230469 143.414062 571.324219 143.222656 571.433594 " fill-opacity="1" fill-rule="nonzero"/><path fill="#4441bf" d="M 93.910156 593.632812 L 68.941406 608.050781 C 65.191406 610.210938 65.15625 613.738281 68.894531 615.914062 L 93.707031 630.332031 C 97.425781 632.496094 103.519531 632.484375 107.265625 630.320312 L 132.238281 615.90625 C 136.003906 613.730469 136.019531 610.210938 132.300781 608.050781 L 107.488281 593.632812 C 103.75 591.460938 97.675781 591.460938 93.910156 593.632812 Z M 104.378906 628.644531 C 102.242188 629.878906 98.753906 629.875 96.625 628.644531 L 71.820312 614.226562 C 69.675781 612.984375 69.691406 610.960938 71.828125 609.730469 L 96.796875 595.3125 C 98.953125 594.070312 102.425781 594.078125 104.566406 595.320312 L 129.375 609.738281 C 131.496094 610.972656 131.503906 612.984375 129.351562 614.226562 L 104.378906 628.644531 " fill-opacity="1" fill-rule="nonzero"/><path fill="#ec3b3b" d="M 97.757812 597.980469 C 97.566406 598.09375 97.414062 598.203125 97.253906 598.332031 C 97.113281 598.457031 96.972656 598.59375 96.867188 598.742188 C 96.757812 598.878906 96.710938 599.03125 96.632812 599.195312 L 96.546875 599.667969 L 96.53125 602.742188 L 96.515625 605.8125 L 96.515625 608.898438 L 96.503906 609.597656 L 104.710938 609.597656 L 104.71875 608.902344 L 104.734375 605.828125 L 104.769531 602.742188 L 104.785156 599.667969 L 104.683594 599.183594 C 104.632812 599.03125 104.5625 598.890625 104.460938 598.75 C 104.355469 598.585938 104.230469 598.457031 104.09375 598.332031 C 103.941406 598.203125 103.765625 598.078125 103.589844 597.980469 C 103.398438 597.867188 103.191406 597.769531 102.980469 597.6875 C 102.753906 597.597656 102.53125 597.527344 102.269531 597.476562 C 102.023438 597.414062 101.761719 597.363281 101.5 597.335938 L 100.679688 597.285156 L 99.859375 597.335938 C 99.582031 597.371094 99.316406 597.40625 99.074219 597.464844 C 98.828125 597.527344 98.585938 597.605469 98.375 597.6875 C 98.144531 597.777344 97.953125 597.867188 97.757812 597.980469 Z M 96.464844 614.359375 L 96.460938 615.054688 L 96.425781 621.203125 L 96.425781 624.527344 L 96.492188 624.769531 L 96.597656 624.992188 L 96.734375 625.214844 L 96.910156 625.417969 L 97.117188 625.621094 L 97.339844 625.792969 L 97.605469 625.964844 L 97.898438 626.117188 L 98.210938 626.257812 L 98.5625 626.378906 L 98.910156 626.480469 L 99.292969 626.5625 L 99.675781 626.621094 L 100.097656 626.664062 L 100.511719 626.664062 L 101.351562 626.621094 C 101.613281 626.589844 101.875 626.542969 102.121094 626.480469 C 102.363281 626.421875 102.59375 626.351562 102.820312 626.257812 C 103.03125 626.175781 103.242188 626.074219 103.417969 625.976562 C 103.609375 625.863281 103.78125 625.742188 103.925781 625.621094 C 104.082031 625.488281 104.203125 625.359375 104.3125 625.214844 C 104.414062 625.074219 104.503906 624.921875 104.554688 624.769531 L 104.628906 624.285156 L 104.648438 621.210938 L 104.679688 618.128906 L 104.699219 615.054688 L 104.699219 614.359375 L 96.464844 614.359375 " fill-opacity="1" fill-rule="nonzero"/><path fill="#ec3b3b" d="M 76.429688 610.296875 C 76.253906 610.394531 76.082031 610.515625 75.941406 610.636719 C 75.785156 610.769531 75.660156 610.902344 75.554688 611.042969 C 75.449219 611.183594 75.378906 611.347656 75.324219 611.496094 L 75.234375 611.972656 L 75.253906 612.226562 L 75.300781 612.457031 L 75.40625 612.679688 L 75.542969 612.902344 L 75.71875 613.101562 L 75.925781 613.308594 L 76.171875 613.492188 L 76.429688 613.660156 L 76.726562 613.8125 L 77.042969 613.953125 L 77.371094 614.0625 L 77.738281 614.175781 L 78.101562 614.246094 L 78.484375 614.308594 L 78.90625 614.347656 L 79.34375 614.359375 L 121.828125 614.359375 L 122.664062 614.316406 C 122.941406 614.277344 123.1875 614.238281 123.433594 614.175781 C 123.679688 614.113281 123.921875 614.035156 124.132812 613.953125 C 124.355469 613.863281 124.554688 613.773438 124.746094 613.660156 C 124.933594 613.546875 125.09375 613.4375 125.25 613.308594 C 125.394531 613.1875 125.53125 613.046875 125.640625 612.902344 C 125.742188 612.761719 125.8125 612.621094 125.882812 612.457031 L 125.960938 611.972656 L 125.875 611.496094 C 125.820312 611.347656 125.734375 611.195312 125.632812 611.050781 C 125.542969 610.902344 125.421875 610.769531 125.269531 610.640625 C 125.125 610.515625 124.957031 610.394531 124.765625 610.28125 C 124.589844 610.183594 124.382812 610.082031 124.171875 610.003906 C 123.945312 609.914062 123.714844 609.839844 123.457031 609.789062 C 123.214844 609.730469 122.949219 609.679688 122.6875 609.644531 L 121.867188 609.597656 L 116.546875 609.585938 L 111.222656 609.597656 L 95.304688 609.597656 L 89.980469 609.585938 L 84.65625 609.597656 L 79.351562 609.597656 L 78.53125 609.644531 C 78.269531 609.679688 77.992188 609.714844 77.746094 609.777344 C 77.5 609.839844 77.269531 609.914062 77.046875 610.003906 C 76.832031 610.082031 76.625 610.183594 76.429688 610.296875 " fill-opacity="1" fill-rule="nonzero"/><g clip-path="url(#54a293bc68)"><path fill="#5c59cf" d="M 225.523438 729.066406 L 32.222656 616.730469 L 32.214844 614.496094 L 225.519531 726.832031 L 225.523438 729.066406 " fill-opacity="1" fill-rule="nonzero"/></g></svg>